<mxfile host="65bd71144e">
    <diagram id="ncEZnLqgpZLEsUlzMKDz" name="第 1 页">
        <mxGraphModel dx="1745" dy="666" grid="1" gridSize="10" guides="1" tooltips="1" connect="1" arrows="1" fold="1" page="1" pageScale="1" pageWidth="1654" pageHeight="2336" math="0" shadow="1">
            <root>
                <mxCell id="0"/>
                <mxCell id="1" parent="0"/>
                <mxCell id="2" value="" style="shape=image;verticalLabelPosition=bottom;labelBackgroundColor=#ffffff;verticalAlign=top;aspect=fixed;imageAspect=0;image=data:image/png,iVBORw0KGgoAAAANSUhEUgAAAPAAAAFHCAYAAACf7cHrAAAgAElEQVR4nO2de1xUV5bvv2k7GpWXWAiKDxAwIEbBxAdKIqAoKmHSQhtDnNzbMVg+2nT3jBPbS7cZ6eHaejPTM0lE0Zj53IwhJoNJriFKoqImGnwkYh6CkRJBg0IgCBRoMEn3/aPeRRVU8SoOrO/n40fO2efss6vq/M5ae+2917nngQce+BvdyPfft3DffYM6WcvPWPlnTx7kDrt+/z2fBf2ctf9zKJOH/wyA25VN7Mr8gZLON9cJIkhaEcWQsh3sO2bniKQVPMhn7DlwQb8nhmWrw+CS/XMcvs6UJFY8BJ/tOQDm15mSxIpZ/gx0qO5blOzYx3GbbbVuw4Pw6R4OfG6+P4Zlq/2o0tdh3PvECjyKrY+1gdlnsHVVa2KeWE0YJex443j7B/cAXXNv/5z0LHfGXtei3vIjQ6YO5HfLhjDW7R7gbzR8qeW5HT+1cbYiuIchQwZwL3Av97BS7cmDqr/RUHmXhh/uYcj3f3NAvDrxDAPgLpWfmG6wiKQVRPmb3fJ3Kym0e1OZ3cx7LI9oWwQQkRSku37oalaH2mlmvdUNGhuK/+0Sdhxrv37H2m+fgf5RrF4dZa9SKq13xfoxrL6KfU5eR0cESQ/501y2Q99Oew8JE8ff2EHvkG5Xcg/33jeAewfdA/yc36k9CLr3R2rLf+D2vT+Dlr+2ebZCBGzOAHw874Hv73D0326Td8uRcyJIWqGzfDuOAbHLWD1rGTGfmyzH3crC9oXRGaYk8aA/VH6yw+4NGpG0gqihluesCIWSHbpWXjjwGWNXPEjSlAsccOCSMU+sJszLfvktK0/A/negF5d1/X7DuFXVQfkmPWh8MJm2r7CjPavdlwkfgOe9wLd3+M8XWii53f4pChTwj3xe/hNBIUNYsm0Qj5Q18/bOu5xuS8hTxuJDJZ8ZbtZjl6gcH4VfLHAMvIYOpLnKefHaFojeit2tpKTGsE9nbQYC/rNWs3qW+fEmN9aaiHE+DGQgYatXE2Ze8FASEZ860kJzT8O2u2uOUxZ4ShJBXtBcZed7sPiclh4PscuI8qmhcM9xY10P+jcbH1T2iHliNUHNhTa6Cva/Q0Vx8Qc0tX9DNcKdf/qPwdw838Te//tjm0JWoIAhb8stan95H4/OGsrIEA9WbmqC333PaXsneA9h4O0qM5fyAo23o/BxjwD93mFGt9bxm8HCpdPfUJhZsYikFbqy2FB8agopGRqFX5W51dOJyh4XDuyx7QZPiSCCsQ600Jx6bt/twLXsEDNRJ55mWru2bfaBY5exOnQolZ/sM7nOD/nTfMkZ9ziGZbN8qGnDm1Emf2XXP9ehWTaYhKmDGTnNi9/6NPDPGT9w084ZihHwvT8HWuAH/fbp//6e0//9Pcv/pCLO/z4enPY9p8/ZPjfCfWirffXNd41/m9+AEUkriFqRRL1TfcgYls0aQk3lXXxsFR/bxx4g5gl71s3E3eZ6G3ut+oefX+DClLG0dmqtGdjK4vubW/O7lRR+Cg86HPQCuEXJJ7cJ8rpFZeVQhjh8HmbiNY8/WLrSjlHP7bsDGeLtzDm9FP97dN+hoat7+28UvHqbgldb+O2Lw5gcMIhH+IE37ZzeywU8gJWbBjNqyM8Zex/cvvIDnzGAtf/qzqiGH/mBe1D5AT/cpcKOeAEuaJst+5bo3GaabRyr72eOnQIXHHq6x7BsdRC3P9nDtXErbAvYjGGtAli3qLJ5pC76bB5bM7mlOhHZ5XYjF4AYC9c1gqQVoTTuae1d2PqcbQbMYpfhd2kf19xXYC8W15oYllmJ19qVjnlitZWHYo8LHNjjxbLVuu/Sui+vCMLv5bfJg/DxHIiKv3Hz6o8w5F7+edtg7v32r/xw788Y6QbU/sAXbVTTuwUcMoBxfveiAhrKG9m74ydgAD98/zdUfvcCcLuqibdf/5689uoa4oHJYY7AYwh2+r1eDBkIDsQP9G6zDzX6mzJiXPun2L/ZIhjrM5DmMkhascIqym0jQjsliSBb1XgPgeZrrepOWhHKkNvDGKLv97emdR+5dZ9Y/0A4to99QERS+5/XxHH2mfdxpySxwsKVhuNvFJK0Yhkxxxzpwhjqi2HZ6hUk1TkwbNWb8P854/zuZQh/5eaFJl79r79BODTf/hnBfgOAv9FQ2sjbO++2OcLSuwVcepf0NXetdv7ErvQG5+rRB61CY+HCMXRDM1RSeAwghmVPwD790E1EUhDD7tZwqd2bwdAP69yNYxEAultJ4TEvQkObqWqvzs8PsMfghprX5zfM8sE0bhmrZw3TPTjqklgxyyAQy4dCzBNhDLtbySWzurovMh/Dslm6fq/ld6e3rCuSiNhzgAsOjLUr1p3+8A6/+/CO5b6LP/B/nrPVhbJP7xZwl3GBA5+OZcUs80CVWR/XK4zVq/U9Q4fHUE0WxVyEty45d8O3GtuMXUbU3dsWQtJh3p+1iuoaicHP6xZVb4DOyxiIv1czJTtK8Fu9jJgd+/hsnKGP38iQgboHRUTSCsKGVFJS40PU6mV47diHc7eRE+iDfc0GT8TOxJMHkyK4YHeszHxMX/+gUZoL3UX0EwFjYbEssXLtOkCraPRqww15l8pPTII+Xlxp9hCxx129W9n6Jt1hYQ3N+8j668QuM5tY4cUQKik0PKh2xLBs9TLYsYfCpBVErfaH+hIuJa3Q90N1xx2fksSK1av17bc1rNSZIRvTcNpAQyzgbiWFO3ZYPTB1Ln8M+1pNlmnW6rY7+5v1Fe5RxlRKV2ApIAOKDJj0CUzBwt7S1+0N97YIWOjlmB6k3T5bzkl6w70tAhaEDtIb7u2fufTqgiB0ChGwICgYEbAgKBgRsCAoGBGwICgYEbAgKBgRsCAoGBGwICiYnzc0OLmypwO0tHzf7dcQBFfg6ntbLLAgKBgRsCAoGBGwICgYZa8HnrqdmYmGxDJNXH0lheobLm0RAIMScomc7kZVXgLl53v66vPILkggRL/VVLiTpHRNF9b/E2+8VcmIo2OZm23Y18LRD1r4bIEHz3Wi5m1Z13g8CLjiy7g1sgDGETok4NDFauaM1nLx7RxO1rR/fPeQRkBikAtEEovvsxsYfNIV4myfVbsSCNHkE7fySLfUvy2rklm1vozLNt87iH2ntfzhrWZKlw5ld0cqVjfyeJAXb3byIdDfcNKFDiVRrSa4/iLa7mmP44waw1CuUNcLRdSSn8LpDFcIPJhxPlB6oXvEaxSZDeu4+3kVb9Z+x7Ob7b/Hpy3SRt2FK4NEvE7ilAUOXTyV+rezOUk0qZO6q0kO4jccd5sFaQRsWsAdM3faY3k+Y2q3cjH/mM7tnniBotoFRE53A0B7Vl9mwMI1N5V7LM9n4nj9zsR8/BKxOj+NgE3J6NKn23bpLeqwOCYW32fXQu4HDH7GUMcVijPW0ujwlxKAt6e9MkvXmoYiMn/xOkcN2/FPcmBjJG6G7VZW/CfemFuP5u2xdkX23P7hLHyumW2IFe0pnBLwpfdzdH+0l/y4GzH0Lw1M3JSv+6NsP6f3Oui8jU8mkv2cztitF2sKHvnHdEKZup2Zib5cfSWhlfga9yZwuk0XejflGbsp1z9EbLV9ovdZijI20WL4LM9s545RpG4EPrOAq68kcPqG7jpjEmItHy62sBZfygsUpABU8FbcS+wkmC3vJDCycCdx6RogmC3vrCJ9VzVHVx4B5pG9MZKbuetRZ4FB7Acyy03957nfM8nTi0PZrS9v5Oh9fKWu5EG1B7R1nNBlKC4KbXBPT+ddQWehEnTbjooXoP4sRYbjz1+gCl8GjwKIxTc6CO3Z7d0QDEtj5HQ3qk7qxAvQkr+dq/VBeE81HVWVZ7DIx6i/3IS7Krj9qg+/TlLceuLi8ikFSnPXExe3nri4l9gJsGYhMzwrOGgMZmnYmFVEU3AYq4C5mbMJaSjirSxDhUdQ51bgNnEGcw27gn/Co2EApW02ZADXa2HEKOfd6BCf2zTWKDum6goUJ+DuJZjBXtD8bXdlrWviju3XMHQ/DXVti6+m2uRO2yBtlHV+btuU1gzBw+dHh5uVtrmWig+u8eDnY3ng+QEOnyfoEAFboOFOtyVEBnBjsMX7xXQPjB7B09vU/wUI8Ta53AA+viZrC8z1t8yUvvuGY29PctaS7n5exbgFY/lsyjW+7GAArD/TRwVsEsqghFyzoFF76NxWv8TteLRxzJ068JuY5mSbdlNXBn7RGRhiuIMSFuBXf5ab3R2tziqhlHEsyjS448FsiR9HU+EhdgJHj2to8oxk6RrDCfNYGuVO6WGzIJdmAI2eP1k+BFrxE2NU8O0N5y2ps5Zb0OFUp0M1O5XkSabYb/gSNeG4ejzYmt2U50Uw0xAlLttPcVkyYxw8uyU/hSJyiTQEx2gdpW7cu5+qTcnM3JRsWW4VveaZfALNIs2NexMoXp5vVvcVijNMfeLu4wjqOMguWEVBgX6XJl8f0ELXhwYObDQEv/QTQLLMqtAHqBZuHspz9lxdRwJdQpdyz9ixY7s1razQh1A3UrEEu5MttmVdY2GNf4f6smmba/mDj7vMwHKSPupCC91CtgdvXqnn8azWPkPa5loeVw3nxQ4GonbfGAiqH3G2Y9LfEQssOInMhe5NiIAFQcGICy0ICkZxAh4/3uExIUHo8yhOwIIgmBABC4KCEQELgoIZ4Onp+c+uboQzDBs2jFu3brm6GYI5kx/m3eWTCSm7DDMS+Y8lvgwuvIZDr+Ke/DDvJrlz43wNFT197T6Ak+u3VESnJhNumE35zQmy37/U5Y0SBMExnHKhVbPnM7ZiP9nZ2WRnn6By9BxSZ6u6q22CUqiuo5kGvqmGj2oboLGOK/3h2r2ATk3kCF2sZg49a4XHjx9PWVlZB8/WZblQXTZfnGC9T7cdaFjmV3+WohcNCw5M2TjqJhpS4zieDdMv8wuW8hIf+6TzqH5h0NXcAP7LuGggjYXvpDPNkBan4RN2/SKVKtJY+M46KP6WaVHBoHmT93icR4Mtz/fL/IKVUYZ1VBrei5tHUQe/qa7Bgz+mJTLsTA7/8IX5/jH82z9O4dbePP7k+zDvzqjj/10J5O8idW1vLsrjyYJG/XEPw2Hz823t67/0syCWPsvFhFhME/WCGezVRO0XOkEPSkiBXH2Wj4ytXGU6wQmxFrX4JepybJ3OSKC4zI3AOMdn8HpFpfNwTSYZcQHsKmwkMD4HwxJhv8zHISuAjLgAMuIyOccslmYa6vZg2sRv2bXlE+qDH+fhmkzd+RFbdcVrjrAy6lveiwvQ1z2CR98x1e0aGvnmFviq7C/OBMBjCn/n/TmP/WsOjx2+ztDIKfwKgOt8WQHjJ5itJZscwHiu86WIF+iMgMMSdallzyqrD9yS/wFVXhPxGqXfMTUCv7IPjBa0JX+tmTW1k9ambL/RgjcWXwHvMTg8c1fzJi+m69L5VB3/inrPEYzUF1Wlz+PQYcOBuykqbsTLx3Ttq4dT0SX00PBxumUKociIYK7mmixuVfohrnpOIjLegTbFbeatgwc5aP3v5Wcc/VR2uVJnSMnnwR/TUvm3yYCvB756txeAxs/5t9zrur+/KKcMT0b76jb/8+PPaR4XoBc0/GrCGJqLPuc/O92yvkHHkhD5RJP6iD+VH2X3onXAjrKburJkxkyOpfrGMTwmBlFVvNZUPCqD8GemW2a8tPLYq4rNxHN+Lae7akF+fA7PbpyFRZIOh3Kyp+HnA4Ep5WxKMd/fSK0jpxc8z9KC9g/rCB/VNvAPEzzB14Nht66DygOqcbyvWn2dS41TeGAy8MUYHhh3nSO5jufp7Os4L2CfaFKXhMNX+8kr6YYW9QCNxVdwj45lUH4w3uOvULfXUJJGwDPT4exWTucbXOpcInskTreVv984CwozydBbV7/ML1jpRAZQy/60E8Rt5q310yxT7ACUvc2iX7/SgQrNqK6jeYYHvwoPhMsfcWvCGB7x9WborXI+cqiCRk5caeQfJowBAhhfUc4/dK5FfQrnBGwm3pxTDj3beyfnL1CVGMGgqcMZejaXcqtiY1K7URkET3drZYG7k1uVeusen8PSKA8HLfBuiorXsTLlCJFZHQhcdaMFNjDau4EvCxphQiCPTYDmOsdfa/tRwec89o9TeH0YfHbgeje2Unk4l9h9erjOtZyUjNqY2L23pdRxhN3cPJtLZCJcfeWY1f4FRBqTtl/h6tkm3HvEAm/gcOFCVhrdYA3nChuZ5qAFrkqfzK7ML1hZUM6jhp3GKLYLqW6k2uNhHrz1MX8CuNzAu/FjKLvsjBt8nS8rHmb8sM85Ud3+0f0Jxa0H7twwkqBUfpWSyrw6w/CSYKCfDSMJimTyw/zduOscEfG2QlLhC72XyQ/zbvwYoJHP9ubJ0JENRMBC7+WLj3lMJmy0ibjQgqBgRMCCoGBEwIKgYETAgqBgRMCCoGBEwIKgYJwbRgpLRP2Iv2lbUur0K+5P/yO/neZO2YHn+D+vmpfM5Z/eXYApY3cFBx7bzqEeb2H/wzkBl+SRbVyBpMuPlTq7VtkLGwQHCObp11Zy/9dFlBFpo2wBHHiO1XpRL/zLNpL+MpdDvzvaqiaha+nERI5aahtgbNe1pQdwbUodgFnL1Iy6fzIAf/3xR7488i6lZ3Rt8Q0KY2bKCu69b7DxePNjJs9fwoSouTbP7U7uT3+C4cefY8Orc/mnd61LxzHcQ8t3ZtPTy2q1IKnSeoRO9IFDCR6t5dplJVlf16bUCZkRy493W8jdvJbczWupulJMyMw4PHx0OTkemPd3NNfXkrt5LZ/n5/LXH39Ec+4EpWeOETIjlsDIWXyen0vu5rVozp1gYsxifIPCuui7sc/XmX+ycpnNOcpXV92Z9tu1LASIeYKnp7lT9qVY357AaQusmp1K8iR9vopvTpCnqGWE+pQ60xfgNQqd1dSn1DltnlLHePQx6i+vJVAVDJhZOuuUOtG6lDqt35pribW1rLl6GW//QAZ7eDHYw4uhXiquFn0CQHXZJUKaGnHz1q0n9AmcQE1FqbGO8qJCRodF4hsURvWV9jIrPMNLB5cQZL278Rzblj3P8XbObo9Dv3uOQ0+vZce720hCy7l/f45XO1up4BBOC7j2VA7Zp3R/q2anok5VsT/npGOpW3oFrkup4+EzkujUNQzx8jbu++H7OwDcaaznh+/vMCJwAgC+40O5977B1Fy9DMAQz2F4+Y0h5fntjn5QM15h3aJOZtZog4V/2UbS8CL+/bHtfP30Wnb8dhv3z97FhkyHshEInaBTixlqL19DO8kLFShIwK5LqTN9yf8A4MOsf6Gx5iYhM2K5P3qBrk01N7n7fbOFSG98/YWF1b7x9Rd8si+7dcXt0o0WOOYJYgK1nPv3N/ga4NXtrGYtO5IWsBCNRKK7mU4JOHR6OO7fnEBxA0kuTKlz9/tmGmtu4uEzkpCZcQz4ue4nCJkRy31uXny892WbLvG3Vy8TPG0OITNiOxC46l4LDO4MHw+GJ8HCB8ZBY1FPZiLqtziVkcOi/wsuGQfuqowcgxJyiZxOqwiybr8hvdsVrp71JVD1Aaf37sY8Cl3egUyUITNieWDeY/xML9rqskt4jvDn3Lv/l+orJcxT/x4vvzEW55hbXfMoNOjc79O5exzoA3eSp9eyI2lcq93G8WDr8sYi/v0pvUUWuhVJqdNLMLjTBjEb9k2MWUzx8fd7ZLhIUB4ylbKXMNhzmNGdNuCjD2g11ro0LZ3Qi5GMHL2ELz58mxGBE3h4+a+N+3rMRRYUiwi4F3Ek+8+uboKgMMSFFgQFIwIWBAUjAhYEBSMCFgQFIwIWBAUjAhYEBdPBYSRdNo5wdyW+mVAQ+g4dssCq2fMJb6iksqtbIwiCUzgvYJ9o5k+Ci2dlracguBonBawiOj4cvvpQ3GZB6AU4J+CwmYRzkQ8lC6Ug9AqcEHAoiY94cPGwktLnCELfxvH1wNZJ3c3pwYX9fXU9sCB0BMeHkSySugOEkqieSr0MIwmCy5CJHIKgYDqxHvgSedmKS2cnCH0KscCCoGBEwIKgYETAgqBgRMCCoGAkqZ2gWNasWdNmeVZWVg+1xHWIgAVF89Kel2zuX7diXQ+3xDWICy0ICkYELAgKph8LOBbfZ/OZuUn/b3maqxukJ42ATfnMfDaDQT12zXlkFzzPlvjuv1JcaC5HZqS12vduaGznKnbL5L3Fhzm2+B22uLV/eF/BuT6wTzSpS8ItX37tgjcUdgWDEtYSyFmKMjbR0pMXnrqdmdHfUfRiD1+3NzBqO/9rYjX//fZui90Flz5g6ZIN7Gw8xqobds5tkzi2PDgdLm8htrQAgP7RA+5IEEt7kf05yl9SOEjlhvbysV4oot2UZ+xu9c5i5ZPGzplBaE4n0PoV5btZdXgM78ZvR/32Whvl7RHCcLcmvrpZ0BUNVRT9NAody2BvaP0Uav3+30EJuUQa3w+cRsCmCOpe+Y4xz0zXeSL1Z62sqa6OQC/D9hWKM9bSOCqDcMM5BBG5Kd+yHKt3E5ft11/ThOW7i6Eqz7KdwWznumoDE8e3LneIkCc5sDESN4CGIjJ/8TpHDWVr1lGQYnoHcGnuetT6UZpVu15gUc1O/oMnSY9yb1UOEBe6gODK/cyzZ2G1mzhUmc/C0FiyL8mrVB2lnwk4jYBNyfgZNqdvYOb0DUBTqxd92yeIic9AcUYCjfr6Rk5FLxS9eOv2c/pFS/FxYxMXM2jThW7JT+F0vuGhYVU4dTuR06spzkihUb89MzGXO1WmdrtP38CYs1s5vfeYro7oDG6ed9RVd2dGijdvxa1nJ8FseWcVv8k8w9F0DTCP7IgS4uL0QzZr1lGQso5VWS+xU3+2W9Qq0jX5xMUdYW7m86THP8ncLMMDIJa5Y9zQXNxt88oGsq9f4ZfhscRdOkb/s6Udw/kglns4yWo1arUatTqR0G5oVPexm/KMBE5nbOVqPWjPbuV0RgKnMxwVL+jErrOYsJu6Mhg6Qh+AmZpCoNcVive2faM6Tyy+0UFoz+bqrwucX0txmRuqyWbBn7L9XMzXWa+WL4rReg13IhCm5cwWgyA1HCnW4jZxBnMBOIJ65RHToVkllOLNOPOgV0MRmfpjjh7X0OTpTYixMJjh7k18p22vCd/R5D7c7DwHcRvLSKq41uTsicrHOQtcc5Kc7JPGTdXsVJLViZCdh/LCWF3PoBG+UF/cbf3q5m97zrU8WllH+kTT9qpdL7A02PwILWfMtpqKz5jc7cOvk3TYrNB9DH7Ad+1dVHudKiYy1h1oT+wAhLNr8WFCms7yL++vNl2/H9GpYaTay9cc+577CS3fVndr/UZLDxj78d3EXH9vqKnmKDA383mWBlfwVtx64uLWExeXT6kzlWmvU+XIce5j8KOaaw7fVBdZ+X48sZ/BbxfvYLUzbeojdELAuhSz7t9o+pz1NbnE2y2CRu1y/gJVXtMJTmhjTLPqO7ReE/Ea5UyLjlF/uQn36Sl4GHbp3fXr+d1hleexNMqd0gtmbnNDnVG0q3YlOOnmavhO68Zw93YOcx+Om/Y75x4OAE3XuIkfY/vR+K8Bp1xo1exUkieZfgXtV/vJ7lMpZo9RnRuL6hl9cKv+LMVnfZloHVCyy27KMyBgkyE4BuZRZgBubEJzNpfIZ/IJtCi3jl4nM3NTsjEa3ZKfQhG5ZtFrXeDNWG+ncWfGxhco2KjbMo8iH00/xdKCBNILIkkHmgqLKA0OtltTa45x9Ppa/ld4BnE3NtkNUKnHBNF0PVcCWE7geFbKXoJkpVQqaexckgynE2xP1nDP4N344RxyYhx4zZo1+sUManYtTuC7E79goz6QtW7Fun6xGqkfT6UUepbdrDp9heCZ21G3KktjZ/x0qk53ZBIHQCnfNbkxvB+60CJgoee4sZb/XezLL1vNhV6AX/HWDk6jBChg42dnGfmgzIUWhG6l4FJKqz6urX1O05TOo++bNmUudB/kqbDlrm6C0IWENd1P1uMv2ywr4esebo1r6FcCDgsLY+Pb6a5uhtBFvFay19VNcDnSBxYEBSMCFgQFIwIWBAUjAu4UurQ8AVMdO3pQQm4vSt0j9AU6FMQKXaxmzmj9hkJT6ghCX8BJAauITk0mvOEE2fJmQkFwOc4JOGymTrz92uJaZfUAy6VyU7czMzFIv2E704fH8nwbaW/aS+fTOqUOYJF6x7xeA9qzW/WL/K0WS1ik7DFdu26ioQ5nspQIrsKpPnDoeH+09SoSjRk51CSGdVfTeiOx+D6bzFBjJg9dZg8jozIIT/Tl6isJuvK8agKf2W5aAggwPpkxtfrz867gl2hVbo9RGQRPx1h3cRm6fFwGEU7dzsTxVyg2b5dZhg6P5fpUP4Zy72TCrZY9+iXmG9tWXOZGYJz013s7TghYhcoT3Cd5ocnOJjs7m+yPKvF/JJVon+5rYK9iagqBnEVjZw3uoMkT4ex2k9U6n8vV+iC8zYNcZqLi/AWqsCq3w6DJE3GvL6ZeX3dj8RUwS5njMTEIyi7olxfq1g/jPUZfnob3ePNUP8eoPnkF9wmxlil3zNrWWHzF7Hyht+J0EKvyI7P0OSWnuRiZjJcKqOnSdimSQSo33MebrwXWYT8bhYY79TDYgbpbvq2G6bpEANU3DILdb1wP3FLbBNMj8AAaicVrglna3FFjGEoQfsa1xHrqLZPcVBWb5fI6v5bTzmS0FFyCEwKupbYBxnqrsJGPVdBj6nM6QjCDvZq440i+marv0BJEoEUiAJPgdOl8gphoEGn9WYos2mGVWEDoEzhlgS+VVTLnkZmEntJb4bCZhLtXcqKkexrX6zBLh1N9Q9+v9DJZ2MbiK7gnrsX3i2MOBX8GJSzAr76YIrNjdel8jpnS+ehzF3jETYezWzlt8+Ggy1ppNw/0jWPU1m9g4vK0VrmmBWXjdEYOy7Q6lZzo4YyUncnIsWVJZqcXM5hHgrVnt3JdtQHvYjPhWEShwW7idlRIRTMAAB2GSURBVGidFN48+Xv9WYovT2SiIQptkRi+dd2tr2tdv3XKntYRavMIuKAM+lVKna4QsKvwWK6LEJu75x7L85nIfk7v1dgQoE6UqsvOuPSC0pCplIrAVgrZNLzHg7ZWg64vbVU8KhaVV8/mkhZ6nn61Hli5WGXL1GNygY9RnhfBzMR8/BJNZzn9biRBcYiAlYLh3Ur2kGGffom40IKgYETAgqBgRMCCoGBEwIKgYETAgqBgRMB9hfgcni0oZ1NBOZsKjhDZpZXPI7vgBQoKXqCg4Hm2xLd/RsdYwcOvaUh6urvqd5YtJL37Ab15xawTw0j6bBytXhGp5eLbOZyU1Uiu5XAqLx5GJ+SNI7q48iOo446gE/LsLq7bRNhfNjLpu/9mx6vddgkn2cgn587zy9f+i5qn/r5XLuFxajXSyZxsTprvCktE/QjUiniFzvL0B8QEXuH4Yxtd3RILajOncvwvGhakr+D1zD2ubk4rOjWRI3S8P9qv9ve5F3y3h1/mF6yMMuXRuJobwH9lOVa2lJf42CedR4Nbl0MaC99JZ5qnYVvDe3HzKHLguu1jVbfmTTJWbmjzDMeZR3aB2Uu/G4rI/MXrHDVsxz/JgY2RWCYDquCtuJfYCcAKHo4JovJAMNYL25z+zho+YdcvUqkijYXvrIPib5kWFQyaN3mPx3k0uK3fy/L7NlDy/wqZ+tulhLGnVftcTcf7wD7RTB1dyfk+9YLv9tH94N/yXlwAGfp/xptpzRHLslwNgSlfsNCsz+gVlc7DNZlkxAWwq7CRwPgcY34tv8x1TKt501hvhvnN5EDdbRG5K92s7kzO+TzOs5ldkTInmC3vJDCycCdxceuJi9vJGSJJ3zXPVL4mEgzluRWAljNbDOIFYmIY63GFUjuuc9vf2eOQFWD6XMxiqfFzeTBt4rfs2vIJ9cGP83BNpu78iK26YqvvdFfhCB59J8ci3xkAx49zrTGIkF7TNzfRYQGHTg+Hr073M+u7lfgoD67mtn5KQxoL44OpL3zTVJY1j/c0HoTEmAlF8yYvpuvW5FYd/4p6zxGMNK8m+EEbASgH626j3ZOCNbxntLi7OXRYg9fE2NY3q7OsWcgMzwoOpmv0OzRszCqiKTiMVQDxMwj31HLxuL48q4RS3PEOMatj/Ag8Gr+1n9Slje+sKn0ehw4bDtxNUXEjXj7BxlOvHk7Vr9fW8HG65VroyIhgi9+yKv0QVz0nEdnqobiH2u/AfeSK9r+PHqZjLrRPNFNHa7l2tn9ZX+LHMIxGSkvtH3KrsuML5qvSJ/PernIeLSjnUaC+MNN443aq7vgxDCPYWK+Rhm873FYLGuqw+5UcrubmxkjCY4LhsAbWhBFCBW+Zuf6qkT5AB9sSn8OzG2dhsRhLY+9gc9Lw84HAlHI2pZjvb7QZrKqpbcRDFWyjxLV0LLH79HDcvznR/yLPh69za+OkNg8Z5p8GGISmu0mcyRdWtDJAbxG28vcF6TybCS+md0Xdtvt3XYKnNyFg6vOGeJv1d8upa4CQqFUU6F8CXJq73uQ+A7U3a+D+jlx4K3+/cRYUZpKhf9D5ZX7BSieSLDoaR/BRedBY69CToUdx3oXWW9+LZ/uX86xjA19pPJi2xkY/yeC+RT1ucoHXPM40z9aum2NoqG3ooroPH6O0IZhHd21t+7i0lzh48CAHX37G8WZmlVDKOBZlGqxTMFvix9FUeEgn0jULmUERmXHr9X3k9aitBVP2LY0eI+hoclOjZxKfw9Ioh5L0YvhOA1McGTNfgWo4aG8qPgqtIjq+n1pfPUUrA2BXOSsLyo37DE/xqvTJ7Mr8gpVGV7WRc1smO2j1rCPQ6CLFhr5fO3VbR6h17rLB6u7m0C+Ad9LZVPC48RhrF90ua9ZRkDLOtL3xBQo2ajmzZTMbDx9BHQfZBSYLiyafOEOfOOsQZ+JXkV4QiXkulNJcMyEfP861pzcyNX0FJU4N1WzgcOFCVhrdYA3nChuZ5uCToPV3ilkU2wx9kO18rxmfNiEpdYTuZc06CuLrLIeV1qyjIAWzYSTg6Q9YnQTHH1vQ64Zqwv6iYWrtll45DixTKYVuZa5/q1xArIoY1zrw9eoCjl8NIuYvW3qsbY6gSj9PzPBCPuiF4gXJyCF0M0fTX2feO1YutPVEDz0lv9uC6rWNJD29kQO9wl3dwqxpNRx/rHdOowRxoQVB0YgLLQgKRpEu9JAhQ1xyriD0NsQCC4KCUaQFBrh9+3aPnicIvRGxwIKgYBRrgXsHgwj5dQSep87wqa3pViN9iXl6MJcyy9t4R7AS8OCh9DD99NEmvn71IqU3lVC3Oe38Vt2AX+oMRpd07/WcFvDyP+8jMcC0XX5wGb9/rSubpCAiR3I/5Ry38wP5xQbAuQsKFy9AI59mnkEntjEKqtuEX2oE99eVkNdD4gWoOlZO6NPhhFR110PJSRd69j/tIZE8li1bpvt3sJyARX9mefe0rdfjF+ZL1alqmmyWejA6sJpLH7bYLBV6kMgAHgqs5tOcHn69+c1qjh9s5v5kX6tsJF2HUxY4cPhQmr+7atpx9RbNDOvqNimDkb6EBlZzKcd2sdv8Mfhdvc6nztYbGUDiIl/jZtO5CxzXPwTc5ocTM810K1QdNLlnbvPDeQgNl1QRPBTYutzgQt5vXCxRzafmrv1IX2KeDjDdaFdLyHP4hreq26lz28cvdYbxM7Vys63bDVh+tkGEzPal6uAZm56Q5Xdq7cKbu/e2rm9Zbv5bGSm6ydezIwiNrO4WV9opAe8tLidx0Tr+/NQpfv/abDY8FcnQ8jz2dn27ej1tu8cehE6Dr1918iaODCBx0VC+fvVMa5crMoCYac18mnlRd83IABIXWbpnbtMiCD13gbycFt2NOdsXtyKdh+A2P1jnQr5sq00ePPR0AE0Hz+i7A7obM2a+jRvSBkb39OVGDGJ29Nz2cJsfzkPe5RzPNHyOcGKeDkCbWU4VgwhJ1v0OeR+2mH1/5g8mL/w9q7lkJ0YRioa8TLMHZLIvN1/WXcsvNQw/w8NI/6BoOmj4vgcR8usw3AzXxoOH0iN4qMa6z9vCzctN3B/mAUVd7wE4F4V+7fcsW5YHi/axb986Jlx+iWW/74/y9WB0YBOVX9q5QSO98Wuo5aZT/R6dpWg6p7HRXzKU3TTdmEXlfHrVDf8HBpkOu1piFE3Tl7U0eQ62tEyB3jZT6LjNH4NfQ7nZTd7IpwercZvg5YDrp+sqmNzTFkpPOXpu+3WHTnOz6KY0fajh6wZfRkeiF6fZ71BURxVueJp/SL/BuDXcsd3NuVnNp2YPGcvvzIPRgVBVov9cN+upbAA3H/33PdILf8rNzm/k0rkm/MJar0duqmkG78Hd4kY7F8R66s/sW+RD0fZl/P7j5fx53zr27Y7mpbStnOqGxvVWjO6xTYHqXbZTZ+z0je0xCE9PaKqxb7XaKmuPpg8v8qlqBg+l69zzVu5enZ2bvD1GDsYNX2O9RhrKbR/vNE002IsC3rxDE7qHWOnNFt2DE0tX1c1nKHDHTgXW3QqAav3/LTQ0YLKc1g8Lv8G4efoSkx5gWeVVWlN1x/hg6NB33AZOCHg2Gx4OoPmzl9j6McBefr8M/rwvkUefglP9JhI9iJET3Kg6ZccdastlaxPdDePZxhG6p79BdINw9wZnlslU5ZwhDzC4ezGYidh7MG40Gm+wtm98a6z6012K3qIaH5a6B50O3XfmNy2CxGm6PdZ93aaaZphgu2a/1AjdKILePTcM+xnq1tYBgWEk6te/NJ27YOkdNZRz/GV7QUzzC7XhBXQSp4eRhg4PBIO9fWoSATRTZOup01fptqEjfV9pUQB+RdZi0JdNG4nfh/qyyJHc72npAjpzrYYGjC5d05e1NE0LMAu06F3Xgxfbv+lu1lPZEMBDqXVtB64MwTmnAlyNfHMVHrLoy+vc/eNFmH6LzDZE1J71M3oeuv60m8EC64OUdh9MRXVULQrjofn17fb13XyGQl2dqwV8iq1pgfx5XyL79iXq9zVTtH2F3iL3D/zCfGm6fKGNoaMmKo91zNVt+vAixwknJn2GaZ/e1W1dpouGOvagsOEqXi3RB1/QDXe8CjFPzyBxkdl1DQ8pq8i439MzuN8YjW2h9OUL8OsIo6Uyb3e7tFm3zmv4NHWGmatazacGweojvNZurEX0Xf+ACZ1/kyqr9lQdK6fpaZOFrTpXTtO0wcbv5NLVGa26BqbP1cinmSU8lG6y/q2uDbTrsXUSRa4Hrqqq6tCc5k6vB25nZpXb/HBiVNe7dAhFaIPIABJn37F0YyMDSFyEpeW0ta89bP3WI32JeVpFpTOzxWy1sQuRudDOcLOa423cBE0fXhTx9iC6frolfmG+YN3fLCrn06u+PJTqaMZKdP1W6+s9oMKNZrSOinekLzGLhvL1/u4RL8hcaEHBNH2o4esJVi60ncBSVc4Fvv51BA9FOjg3uaicT8OsXWjngnV+sbqx9e6aRgkKdqE7wh8T0vlTfmYXt0gQXIe40IKgYBTpQnd0Ub6bmxtbU+ynLV332m862iRBcAmKFHBHKXH7mpf2vGSzbN2KdT3cGkHoPOJCC4KCEQELgoLphwJWs2vxYY4tPsyuTr/dWhBci9N94NDFauaM1m9oL7I/52Svfe2EbbJZ+X42uGXy3pwdrH5/NTtc3SRB6CBOWWDV7FTmeF5kf3Y22dnZnGgIJ3lxaHe1rXtpOspXTX6M7a5cJ4LQAzgh4FBmTnKnsshkcS+dvYh2dDAKlbAgKB4n+8Ba6s395ZpaGvFA1dFXqwuC0CmcEPAlNN+4Ez7dZG9DF8/Bvxsa1TMUcE3rxqSRca5uiCB0GKeCWJfeP0Gweg5q9RwAKj86QeXoYGpruqVt3c6O8/Ew9TDHFq+j6scCslzdIEFwEiej0JfIy75k2vSJJlVbr7AotIE4tszZyPCv44k9LzOxBGXS8XFgn2hSl4zl2mGlDSOZ08R33bVQUxB6AKcssGp2KsmT3PVblZzIzuFSm2cIgtCdOCXg2lM5ZPen/LGC0Mvph1Mp9bjNZZJbFdfEhRYUTL9aTqhDza7FKYQATZe3yDRKQdH0QwHr50ILQh+g3wlYhouEvoQik9qVlZW5uhmC0Cvov0EsQegDiIAFQcGIgAVBwYiABUHB2IxCG6ZMVn6UTV6J7TIdlZzIzpPplILgIqwssIroVDXzuUalraPDEkme1MgJQ0qdb/yZkxqNqidaKghCKywErJo9H6+ibHJO2VpfpCI60h/tV6eNFvfS2Yto3ccSKhk5BMElWLjQtadyyLN7qAovdy3XLhvEHUriknDcAS8VoNBF/YKgZDowE0tFdGoy4e5Q+VE2J8armeqtAgWvChYEpeKkgN0JX5JM5UfZZJeAzq2GxjIRryC4AicEXEu9Fjwq9ptFpnVudb3oVxBcghPjwLVcqtDiPmk+0fqglWr2VPy117gk/V9BcAmWixnCElE/0jpRrPl4sMU4sAterSKLGQTBhKxGEgQFI1MpBUHBiIAFQcGIgAVBwYiABUHBiIAFQcGIgAVBwYiABUHBiIAFQcGIgPsIczOfp2DXPFc3Q+hhbApYNTsVtVpNYpjtk0IXq1GrU41zovsXUWx48jW22PluBKEncS6lDqEkqtUE119E2wONEwShbSyWExpT6pSEkjip9cGhi6dS/3Y2J4km1Ua5IvD5R15J9uL4zmLCVy0kAED7OS+//q/o3pwaxYYnVxNhyNv3zSGeyHsDgOWJr7F4tH7/nNd4Y47uz+avdvDMyUII+xNvTK03q+sJtqyaQ/3+VWytwVT+IfwqeQpDLeqPYsOT/wM+PIFXsr5dVPD+zj+y14mPt2rXCywN1v1dmrsedZahJJgt76xihqd+s6GIzF+8zlGzMu/D6ymKMJyv5cyWzWw87MTFhR7HwgLXnspplYXSnEvv53CyTywdHMfiVXOo3/8UT+w8RLn7FGN3YXniaiIaDvHEzqd4YucOLngu5JXoKAD25un3aaH8xFP6Y57SiddR3Kfw62Qvju98iif2f07z6DlsMHZFhhCRbGjXDi5oxxGjv7ZDBCewqGYncXHricutICRlHav0RXMzF0LWel1Z3E7OEMlvMoMtTg9JecF4/lsad2b8UvrUvZ1+G8QqP6G3irzBxW/AZ3gU8AThoyt4X29xoZCt5ysYOm4Ws7vsyre5sF9vVWs+oVQ7RJdTrFW7CjlZcZuhXgGOV63JJyldo/s7q4RSxhG5Rrd5NP0lM2uq4UixFjefALvn77xQAT6+zHX68wk9Sb97O6GOCi6aeRp7857SCcpnFj6MY/Gq11hsfri2vusurS0182IK2fq6E9bbKcqpawBvw2b8kxzYGImb+SEayzNKLxwxbWS9RFwWQi+nnwq4LZzvd/ZOAvD21FJXCjCP7I2RULiTOL2FnZv5POn9chShb9FvXWib1HxCqXYcixOfaOOgQiobICDIzjHuXgQCuqCUIRjV88zNnE1Ig4YjZkGom5V6kxv/JL+Jcrd9oqAoLC2wdUqdR9SoHzGl1LF8rQqEL1ETjpaLb/eV4FYhW1+HDU+u5o1VC417jVFmPXvzDhG+aqHxGGN5yR95P+g1owtefuIQ5XPm9FzzgxMoKEjQ/W0RZT7CW4WzSU95gYIUgArOFGqZIRZY8UhKHUFQMOJCC4KCEQELgoIRAQuCghEBC4KCUVwQSxAEE2KBBUHBiIAFQcGIgAVBwShSwGmba6n44BoVbzWT5urGCIILsRnEMkyZNH8rob6E6NRkwo2L3U+Q/f6lHmmoLbZlXWNhjT8PPD/AZW0QBFfiVEod1ez5jK3YT3Z2NtnZJ6gcPYfU2SobR/YMz33uhYfPjy67viC4GgsBG1PqnLL9xt/aUzlmZZfQfAPuXq4TsCD0dyxWI9WeyiHPVS0RBMFpOh7ECktkzmgtF8+6rg+MZgCNQS1sc10LBMGldEzAPtGkPuJP5UcuXgd8dCgPbBvAwg+uUZHV4sKGCIJrcD6ljk80qUvC4av9bWaw7BHUjVTMHcC/LBjLbhc3RRBcgXMW2Ey89gJdPU7tz0W8Qr/FchzYOqWOHsN4cOhiNXNGW5e6MKWOupGKKYMYt2aQCy4uCK5H2auRRMBCP0eRUykNbJtST2ONZMYV+i+KvPvTNtfyh5m3AS/eXCPTKIX+i7JdaEHo5yjahRaE/o4IWBAUjAhYEBSMCFgQFIwIWBAUjAhYEBSMzXFguyl1rKdaujiljiD0d6wErMt5NbbiIpWEtz66JI/sEstjU2fX9p6FDYLQz3AqpY4ltdQ2dFOrBEFwiE6k1AkleLSWa2fF+gqCq3B6LrShfwzANyfIc2VGDkHo5zgt4NpTOWSf0v2tmp2KOlXF/pyTiB0WhJ6nU8NItZevoXX3QhLLCoJr6JSAQ6eH4/6NBhlIEgTX4FRKHYv+L8g4sCC4GFkPLAgKRqZSCoKCEQELgoIRAQuCghEBC4KCEQELgoIRAQuCghEBC4KCEQELgoJR5JsZegNzM58nPcowK62Ct+JeYqdLW2RgHtkFCYTot5oKd5KUrunC+n/ijbcqGXF0LHOzDftaOPpBC58t8OC5LryS0D7OpdQxHUF0ajLh7i58M6EriX+S30TBmS3r2XjY1Y2xZNWuBEI0+cStPNIt9W/LqmRWrS/jss33DmLfaS1/eKuZ0qVD5XWvPYiVC60iOlXNfK5R2cZJqtnzCW+obPOYPk2IN24NGo70MvFCMON8oPRC94gXdSOPB3nxpo23Qe5+XsWbtd/x7Oafuufagk0sLLAxpU5JKImT7JzhE838SXDxbQ1eo6f2QBOtmLqdmYlQnLGWRrv70gjYlIyfobxsP6f36u3CqAzCnxnO9YwLeBuOqT9L0YubaHGwCXP9vYG61gVr1lEQUUJmzWyje931LmxbBODtaa/M0rWmoYjMX7zOUcN2/JMc2BiJm2G7lRX/iTfm1qN5e6xdN/m5/cNZ+Fwz2xBXuqewsMC1p3LsuMwGVETHh8NXH7rObT5/gSqC8DZ7dgwa4QtlF4yC9lgeQV1GAqczEjidsZ+q8ckEWDxrgpi4aQF3XtGXe01npAPPolW7XqCg4AWdOD0jSS/QbR/IDDYdFJxAus8p4uLWE5dbgVvUQlZ1wcduk/gnOVDwAgV6gYak6NpVULBOf+1gtryTwMjCnbp2xe3kDJGk75qnr2Ae2RsjuZm7Xl+eT2lwguXnmvs9kzy9+Cy71dVNHL2PrxrqeVDdXR9UsMa5IFbYTMK5yP5TteCyZfy7uXl2AZET0yg/vxuIxWsCXM019bwa9661OL6uLJkxI2KBY8a9VXkpVN+wX26LnSvXsxN9AGuixtKCGWgoItNgubJKKE2Zzbh4oF13+xleOriEIOvdjefYtux5jrd16uHXSTr8OgYrS+561Flm5WsWMsOzgreMnoCGjVlFHNgYxiqOUJo5m5CGIjKN5xxBnRtGQfwM5qLRfcbgn/BoGEBpm59hANdrYdKonwB57WtP4ISAQ0l8xIOLb+e5PH1OyxfFaJ+JwANoHBWLimI0N8wOmLqdmYmWUtBaNPoKdedNW417E7jYje11jFdYt+iV7qu+oa5t8dVUt34YmZE26i4wuN3LlNYM4XGfHxEB9wyOCzgsGH/c8V+itsgY7b9ETXhPL+y/cYza+g14T4WWERPh8nZT/3VUBuGJQVTlJVCuF6nH8nzG9FzrOkgnLLAjeHoTAiaRhnib+rsAPr7MNSu37ufvvjGQP4S1f5kQn9s01gzrbGsFB3FcwBZJ3QFCSVRPpd4lw0jHqL+8FtWINLwmVHP9RWvXt4k7Vfo/p25n4nhrC9wb6UYLnFVCaUoCizKD2ZmuAYLZEj+OpsKdurHr4xp+ExXJ0jWvczQLYB5Lo9wpzTXrImgG0LjkJ1MQzCY/MUYF334u1rensBSwdUqdR9SoH6GN8WDX0ZL/Ac2bkgks289p84Ibm7hels/EZ/IJBKg/y9WyoH6eeO8I6jjILlhFQYF+lyafOEOf+PDrJAEHNr5AQYpuV1PhTpLM+9FH7+MrdSULNw/lueftCFQf6DrUVqBL6FIkpY7gOOpGKpbAm3ZmXG3LusbCGn8esCdwocuRudCC42R78OaVeh7Paj1inra5lsdVw3lRxNujiIAFp3hujT+fqKo5ajHW28KymQN5U6ZR9jjiQguCghELLAgKRgQsCApGBCwICkYELAgKRgQsCApG2Sl11qyjIGWcfkPLmS2bncyQIelhBGXjXEodn2hSl4Tjbn6wy95QOI/slHGUWi+dcwJJDyMoHSsB63Jdja24SKXFmiMztBfZn3PS5UsKifdlJBUc7KB4jelhFthODxOSdY1nN9/HbplZJPRiLPrAxpQ6p1wuz/axXg5nZB7ZBetYZcxS8QIF7zzJXItjDOlh7LvJz+0fDjOb2dbFzRaErsTJlDquZ27m8zpRpowDxrHUIFJjehh0+zd6c9CQHsYzkqVrzCuR9DBC38D5IJZ7OMlqg3tdyYnsPHqyB3w0fbNujeqadRSkYCcfs5YzWwz7j1CkSWCRfzCgXz4n6WGEPoJzAq45SU72SeOmanYqyepE6GERdxZJDyP0FTo1Dlx7+RrarmpJD7L7xkCHjtOlh1H2SJvQt+mEgHUpZt2/0SjK+gK69DCeDqaHuSHWV+i9OJVSxzA+bED71X6ylRCxtkbSwwh9hP67HljSwwh9gP47F1rSwwh9gP4rYCQ9jKB8+q8LLQh9gH5tgQVB6YiABUHBiIAFQcGIgAVBwYiABUHBiIAFQcE4l1JHT+hiNXNG6zdcllJHEAQnU+roysMbTpCdLaIVBFfjXEqdsJk68YrFFYRegYUFrj2VQ14bB4eO90dbX0+iWo1hzVJvfPm3IPQXnFitrkLlCe6jvTifna0Telgi6kdSia7N4WRNdzVREAR7OB2FrvzILH1OyWkuat3xUnVtowRBcAwnBFxLbQN4eItaBaG34JQFvlRWifukmYQadoTNJNy9Eo30gQXBJVguJ7ROqaPHPFBlmVan59PKCoJgQtYDC4KCkamUgqBgRMCCoGBEwIKgYETAgqBgRMCCoGD+P47P/xqYzIqrAAAAAElFTkSuQmCC;" vertex="1" parent="1">
                    <mxGeometry x="120" y="60" width="240" height="327" as="geometry"/>
                </mxCell>
                <mxCell id="3" value="如右边的代码，在执行时，如果形成了闭包，那么按照ECMA的规范来说，函数foo的AO&amp;nbsp;应该整个都不会被销毁，但是一般浏览器的js引擎为了进行优化，都会销毁掉不再使用的AO属性" style="whiteSpace=wrap;html=1;align=left;" vertex="1" parent="1">
                    <mxGeometry x="400" y="60" width="600" height="60" as="geometry"/>
                </mxCell>
                <mxCell id="4" value="" style="shape=image;verticalLabelPosition=bottom;labelBackgroundColor=#ffffff;verticalAlign=top;aspect=fixed;imageAspect=0;image=data:image/png,iVBORw0KGgoAAAANSUhEUgAAAlcAAAC2CAYAAAD0vKiKAAAgAElEQVR4nOy9e1xVVfr4/1ZEUJSLCMjFo0LCiBgDqHgjS00Ts0koR3NSzO/oWDNeJqP8WHbSMcsss0+NP50xyT6OfSjMyVualqapaOrHQBwhpI4iAhK3CBSx3x97n3P2OZwDBwW78LxfL14vzt5rrb322muv9eznedaz2mzduvVHHGTtP1M4eybTobTtO3oREf9ftGnrpBy48hEnPt1vlepufjPxAdzUXz/eqCNz54tc+6HUKt0MvB95HD6JoaTY9vU63puD58XeXDobRBu3KNq27Yv3uIfh5CpKCsrN9YrRE8j75J04A3W51P2QBUGp9LrjCN8UDSawdwg3smMo8jiBb3kMl87OwPuRh7n63n5c+ldQcuzvprI6jcvB/XxvLp1VfjuFpdK5ciJlHh8T0uV9cr9YD6GrGDQZMl6YTxXgNnkH/djI0c3/C+rvQV0PsO+/V1jdUTL9Vg6nct04vsnWHLYqz/cvBwi+8ndTeYSuYtDMaKp2DifjU02+ERsZ2TfTxnWUMvzOWKVvpB6+fzlAP3bYLM/+Pan5enxLxoKpFGnSm9okdBWDZoZyWXM9t8k7GBQDuVbHGspjbAdOaNpG24YzvTmvqYP5XsfhZisPAL+n5/OP0y3bxvkRGxkZj+m+LNrU6lxDdbD9LJLptzKCQk3ZNtve1nVsYixvBx2fH8cPL0wF43Wx308s82v6hLFv7fZn0JgCjv43FvXV3ptFX7XTt0zPtnAcg/x2cPTEIAZNhq+zQ7lD8+5Y3sdU2Kypj6Yd7JWX8UIBwTbqaY3b5B0MCs3m6AvzqeL39FSv9cOYHXTcPY7iGKX8810f19yf0lc6H1Sepe9fDtCvy0m1DEeexd+pjDPntzseWPfJBp5FldXYY//ZjgN1/LDbdpuhn7b/jtjIyLgSjr4wHyzef8t2sFveQW8GqfmN46StMcTRZ3G0cJwD/dj6fbbzLApP4tbHPOaC5j21eF8cfxbm/mbjXbLTDvb78VF8tP3fur1sPosG2s5Urp05xohFXW/uvbDsd9q2sT9GnfdztB83dYyyymNvLqWR90Jtu3YN1O6WuPZDKYaTafToP1E50PUBYiY+0GAew8k0G4IVQBa1P7jj7v8H2pT9Dz/Was8F0cZtBp27XeX6WYCL/Fh1kTq2UbTDBb/xz6D7ehV5x9YDUFer58e6i9RVbjOV0C4giOulR/kxaxVFXifoysN07nGVH3ZqLuMTjmeXi5S0n0HH0L44AR06Qqe+HxPU1wc3t4tceOd3lAF4ujjcTlWbD1C0chwjV44DvtcIECs4f2I4g2YeIATgW81k2jmaQSsPKP9/u4N9DXYygN/TM86b3M02BprQVQR3OWlDsFIGWV/1l+/MA4RUqpPDiI306wFgrDdgPEcywTGQu66hQc26DTZy+fnHGbnycQCKdg6vN0g0Rx7jy2IU5vutPGDZrjaxbIcqjeClCH2d1DOWAmPRf+/Ab+UBRsaD8bkWNVYHu89iBRk7NzLS+MwrT3L0hRWN1sE2v6fn88oAUgS4ZU9V+lLlSY5+CowAemieq6lMZVAM6Wy+H9MAFFei1uf3XJ78OCNXKu1kFGyM9auyElrdJg/H99sDZGif24iN6mTwv0APqlY+zsgYKNr5dzrFRVN1UNvXV1D47QH8RkAlnQgxvivadrBb3nCqSAZ6KM/A+Nx2aoShHmja2zjRqBNDNhBUwsiZBwjhWzIW/C9F9MBv5eOMjHncfL/qsyz67+Fk/OWA+b3le3LXbYTJ9p7F/1J1cRCDZhr7kLaP2+mTjT0LwC3GXD/TfVn1SWMbNNh22ZBxYofmfr4lY4EqfGweR8ZfDpj6kKkdGirvU8joq2kfTR+/mWfBiHF2+rG999n+e3H6SiiR3x2wEIqLznxLv77JcAaL6zj2LOy8SwCfTrXdDg3249/jY9H/zfWosvMsGmy70EF255jmfi9s08gYNdlOP76pMaqBZ5E9n6PrVlm8g3y7g31nIhp4FqtMbdempTRXRroGD0IXnWjWYNngxxt1GE6mceX8Ubtp2gSn0mNIOC5OQFsXnNsDdVepVQWta4UfceHj/+K6dca2f8DFJ5er7ecTMiIcl/ZwZU8ERd8aEzxO10ce5toHy+He1wj0u0rZ5au439hP9sf/xY+Mx/13r6HzhbIvppJfMxv/XvBD4RXqqOF6wRGuXYMbNdv4sctGet4XTYf2UH7gj1zKPtKktnIIK82VQ9y01kq4ncizEARB+HXQ4sIVKCZCnzuG4uEfjmtnH9q0deLHG3XUVBZTXpBF8ddf2NFYNSNtB+Pk5kJdpbVpEnAOh9osTdpwIAtuNPUi4bTpHARVe/jxBnT01TE4+d1bqLQl+xYMtxCuBmm+uAVBEARB+HlwW4QrQRAEQRCE1kLbn7oCgiAIgiAIvyZEuBIEQRAEQWhGmrxaMMDft/FEgiAIgiAIrZQmC1eXChpe6C0IgiAIgtCaEbOgIAiCIAhCMyLClSAIgiAIQjMiwpUgCIIgCEIzIsKVIAiCIAhCMyLClSAIgiAIQjNyW4SrIYMHMfHhRNzd3W/H5QRBEARBEH4ybpvmysPDnfvG3CsCliAIgiAIv2qaHOfqZjh85CgAffv24b4x9/Lx7k+oqKiwk3oGb6V257viAQwMAaji2CsTeW4fMFJP2lMD6KSm/P7oKyTq9yvHZ3XhMiHc4Z7LsaPdGDjIja+3jOOJdcDMN9idEKJkqjjOSxP1fNaidywIgiAIQmvltmmuDh85ypkzZ/HwcGfI4NiGE7sPILz4FcbcN46XjsLAhBnK8X16Eu8bx5j7xjHmvlfICn+cpSONeUJg7yscqwhhoM9uXjpaRbeAuxXBa9R3vKTmeykrnGfemtGi9yoIgiAIQuvltmiujFy4eJHBg2MdMA3mslu/H4DPLl3mGR/j8Rm89XECd5jSVXHM+G/FcT5YByNGVXFsy3qIGwPAPXHhdHJ345mPd/CMuXhBEARBEIQW4bYJV927BzHx4UQuXLhI6vtpN1XGzLcSuCN3C2OeWA/czdLUxx3KZzIfCoIgCIIgtDC3xSzYHIKVke+LVbXTzAQGOuAb/9nBLBiUwMxbuqogCIIgCIJj3Bbhqm94n2YRrNZtOQ6DnmL3xzvYHfkdx+z5xGvZp+fNo91I/HiHku/jHbwlkpYgCIIgCC1Em61bt/7oaOK1/0zh7JnMlqyPIAiCIAjCLxqJ0C4IgiAIgtCMiHAlCIIgCILQjIhwJQiCIAiC0IyIcCUIgiAIgtCMiHAlCIIgCILQjIhwJQiCIAiC0IyIcCUIgiAIgtCMiHAlCIIgCILQjIhwJQiCIAiC0IyIcCUIgiAIgtCM3Fbh6skn5zF+/DjHEkfexb+T72K6g2VPnziFVZE3UysPFs+awr9GedxMZkEQBEEQBAtum3D15JPzCAsNJftczu26pCAIgiAIwm3ntghXRsHq1Vdf51x2tmOZCr+jqvw7co2/u0Xwr1kR3KVNY33MJ4J/JU/h38lmTdT0iVZaqci7+LdFOeVcKIXC4vKbuzlBEARBEAQNLS5c3ZRgBXA5k0fWZvK56Xc5heq/JhOgXxfcSstNaYKju/DJik38buNpiI5kOrDh89MQ0t0kTE0P6875o5pygQ2pm5h/+ubvURAEQRAEwUiLC1ddvb0B8O7a5dYL8+hCCN2506scfBRtVNV3FabT53d/zgawEMS4fIH/0JO7uwF0506v03wogpQgCIIgCC1EiwtXC//rOUpKSkiaNpUhQwbdQkkVlJa70z3SA3JPU9qlO9N93B0w55Wz5GgFv4nwgMheYKW1EgRBEARBaE5ui89V8whY5Vwo9cArDEozL3CBntwb4uAKv9N5FIZ0Z3EYfCVaK0EQBEEQWpDbtlrQKGCF9u5902XkfldOcM8uXLgMG85V4OZRTmlh4/ngAl+VRhJDnmI2FARBEARBaCHabN269UdHE6/9Zwpnz2S2ZH1aCA8Wz4qDf29nyeWfui6CIAiCIPyaafdTV6Bl8WDxrPuJ8YDzuzcxXwQrQRAEQRBamF+5cFXOkrWbfupKCIIgCILQipC9BQVBEARBEJoREa4EQRAEQRCaERGuBEEQBEEQmpEm+1wF+Pu2RD0EQRAEQRB+FTRZuLpUUNQS9RAEQRAEQfhVIGZBQRAEQRCEZkSEK0EQBEEQhGZEhCtBEARBEIRmRIQrQRAEQRCEZkSEK0EQBEEQhGbktghXQwYPYuLDibi7u9+OywmCIAiCIPxk3DbNlYeHO/eNuVcELEEQBEEQftXclo2bDx85CkDfvn24b8y9fLz7EyoqKuymn/nWDhJDjL9ySbtvDusAuJulqU8xUCuf5W5hzBPr6537ess4nljX7LciCIIgCILQILdNc3X4yFHOnDmLh4c7QwbHNph23RPjGHOf+rcFEt+aAcA9+scZWLxFOf7Kcb4nl7Qn1gMw862n6LLXmG8LJKSydGSL35YgCIIgCIIFt0VzZeTCxYsMHhzbqGnwHn0qzwxyMx/IPd1IyTOIDIE7QnawO8F4rIpjt1JZQRAEQRCEm+C2CVfduwcx8eFELly4SOr7afYTjtTz50Fw7JVxPLcPmPkGuyOVU59duswzgxLY/bEiQX29ZRxmy5/WfCgIgiAIgvDTcFuEK4cFKxOXubAP4G6WjgqBYkVzNTMyxI4v1XpO5+5gjP5u1un3N2/lBUEQBEEQmsBtEa76hvdxXLDap2d3wg4SP95BIlUcO5oLPsqpdadz2Z2gNf2ZHdfXPbGFyI+fYvfHTyknKo7z0kQ9nzX/7QiCIAiCINilzdatW390NPHaf6Zw9kxmS9anAe5maerjsHaiYi5E9c3y2a2uFhQEQRAEQfjpua0O7bfGfj7NepxnntrBblU5pWinRLASBEEQBOHnwy9IuILP9BPFzCcIgiAIws8a2VtQEARBEAShGRHhShAEQRAEoRlpsllwWN7XLVEPQRAEQRCEXwVNFq5OtEQtBEEQBEEQfiWIWVAQBEEQBKEZEeFKEARBEAShGRHhShAEQRAEoRkR4UoQBEEQBKEZafEgot7O7Zge6EWYmwtXaq9Tcq2ObcUVnKu62tKXFgRBEARBuO20qOZqiKcbL4V2I8zNBYCuzu0Ic3MhKdCLB3zdW/LSgtCKiWa7Xs/2mJ+6Hj810g6CIPw0tJjmKszNhemBXjbPdXVux2DPjpyruuqwBmvZhg0MvPtuFk2fzrH9++0njJlGVngG4e+eVA9Es13fj1P6d3iuiffQEiSNnctsUondVWDz/NJH9URl6bnfwZgXSWPnkhxrbufz224yb+5Hmjb7uRLNdv0DBGuONOV+hdtHU/uxJf5smDcRUlcz/ZIDyQPiSZ85kM4A5JHW0u96vTFGEATBkhYTroZ4djT9H7EhlQt/XwVA77+9xpdjBtPVuR3jfdw5V1XsUHkTkpIARcja+s47vKXXN3+lf6FUpq9VhLWYaWSNn8bSE45MLtE8FFtGmn71z0LodJzbMHn+4jnJ/frWM/EvHTmQ4m16YusJcq2rHQRB+PnQYsJVqGoKBMh59kn6vZ2KS2AQmdMnmo57t3dqcrmBPXvyxPPP8+C0aSTdcw/533zjcN6ksXN5iBx8YtWvXCttjYUmp+wYK17fSQr+bJg3i1hPrI5ba6GsvrZjppE1vpfm6qWkr1vNAQCi2K6fpWhgjHXQpg/RkzUemixInMjg/Pg4ggKASzT8RR/QDZ+yYnLrFWJ5v2bNkKIBLE73JFZtI63WaOmjehJDlP9Nwh7RbJ/XjeKSgcSGmNvApI2waCNt/ezVwT7Ks8ihOHag0q4Wz28inCsjNraXVf0sr2M+3lB5mvv1tjzWENr2aeheAU2/vLl2SLbxfACr9rZ6FnbrPZegK7bazs77cgv92LKNSkk3nWmoHfwJ8i6l2EoRbL8dGu6TtvsxVu8SkJvRyN0IgtCaaXGHdgDXgCBcAoO4mn/R4nhX55u/fGDPnqR89hn39urVeGINwbE+pOn1PEc02/VxbAg4aRKGksNyWKG3niwLmP66WUuWNHYus8f6k2LHrKcQzfbxnqSv0zP9kjJgj76SyvRLkBQJnWN7k7VOz/2XNHU48Q7hJ27RnBLTj+CyHD64pNZhpg979HplUouZRta8eHJfv8xDGtNasn4gyZoJZumjs/A5qCfcJFDNZUOBcfLpRThrCdcXKJPNxHiSTuyEsXMZfWUt4e+aBZbtReo9eA4k/JxyLmnsXJJHRsO7J5X841GfhSWN1SFRrydRTaudODvHKvd7P0o7PhSzk5QTAF7Edj1IuP4dtbzRLN31Djw6S6nbLhv1brC8pvPcu5r7jJlG1qPRPPfuSZLGTiS25CPCX1fbZKYPe1SBv+F2sE3KrtWk7FL7kcUZfzbEmfuk43gRG5bDCv07pATEkz5TabvnrN6XpLFzSX40mpR3b64fJ42dSyIfEa43CpXmjzB77XBxpEYYm6knC7NAZL8dsNsnk+z242i2z1TeWdOHU3hT2lAQhNZGiwlXJdfqTMJT98fnkzl9IjWXLtL7b69SPv0IAIfLqlrq8napTN+jTnIFFJeZjy8N78X5g+/Y1EJYflFDZbqNRE2qQ6o6wVnW4WbpHDuLrFhQNASqcBjTj2B6EawRRCgrxmQqCYgnfSKssdC8RBMVAsEmjQNAKWbDbR57jELlpZ3Evg7gz4YwLzp7GuugcN5GnpSiMpK7KkeTIntDeqoNbUbjdbCnBTE/W0WYMVNK+j6jhtJoKvJng3cpWfuMQnIBB86VMtvXHyhopDwrYckBrH3jGtd8NNYOTaWAiyVeJM7Us72JfmrnD6p95NJlivEBIMnXk8pze0x9J+V0DrMndiMJHNLkWeLP8DBIT7VlwrPfDsozaKJ/FmC7T/oz3F4/julHcO5B7m+SUCoIQmumxYSrDfmlvBTaDcDCFKj9/3DZDzddfv4335B0zz03X0FHiZlGYoh5QlfMRY1RQHGZF7Hq1zRlx1jxbkOarltD+VqHDfNmkahqRICbdFK/GZ8mx0xMLVuHnzEB8cyOxaw10mg+UorKSI59gCz9A4CiiTPfd/O2g1EgXPqoIqj8chYD3K7+YKcfy2pDQRCaSIuFYiipvc624gq75zfkl950rKu3XniBe3v1su1vVVBMZUg/lqo/k8bGEZyb0ejAnHullOC4eJJsnTT5JkXzUKzlCsjOXf3V60w0+80ERBHOMVbo9YTr9YQ76JdjxMfXvwmpjRQw/WAehMSxIQDF/8r4v8Oc5FRuL0aPbcr1CzhwDmJHRjeptilFZXSOHW16TrdWh5tB0eSERxqvozzb4iLHhOClj+rJmmenv9ikjIuXQDHPmU3ZS8N7cX6b2k/0WmGn5drhuXf1rEgvvcl+ppBSVEbnsCjT/S8dOZDOJZct+rnj5Vs+C4t36Tb2B7v92GJMiWb7+Ka5IgiC0PpoUZ+rj4oq+KL0h2YJIvphSopjoRgu7WRN+lySTeawPNIcWDGUsms1IV31qg8SZgfdE3tIj5ulHs8jPb1UNYxAyq6DPKRXtQ65x0gv663W4RRZzDKXpSmvMZ7bd4zRM7VmvqY4tL9DWrie0ZH+cOkk92/rR5ZRe4aVg66967/7EVF6jWmkrHGn7ZRdqQyfN8ukfXGo3ifeYYWv9XNS8jRcB/s+V03F+jqV6WttrDhrBi7tZE+uXq13KenpeaCaR5/LyiNrvNbkZb6nm3kWFibsED1Z443aGOswFnmk6W9Bm6r2Ncv3xfyeNbUfa9NXpn9Eelmc+VyztoP9PHb7scXzyyNtWx7B4nMlCEIDtNm6deuPjiZe+88Uvtm+tSXr8+vAZqytOIqb1XQm/PKp7y+UNHYuyV0PSgwlQRCEXzC3ZbVgq+NEBufHP6D5Ala0ESJYCZYopqhkjXbRWgMkCIIg/PIQzZUgCIIgCEIz0qJ7CwqCIAiCILQ2RLgShF88I/CesxE3t6bl6jBlN7rx8bd8dbcZH+Ed0ni6BhmSSp/kxeYBqX8q/Va82bjfwpiPiFy0rAkD2Ry6PbkSZwdTtxv/EcFTJjeQIoJ2vSbgbO8vcKhV+ll4TJqj3JdbhFJv98UEmOoUQVvtc9QtxnvECIsS2vqay2/XxGcuCMLtQXyufsXc2ua5gm1u00bgkalELR7KD5sCObelscRfU1Gg47dv7ubr9YUEzBxGx3ppcvh66hhKjT+9V6K7vzdtD8XTdZK1gFVO1SeLqC5Rf0ZspG+yZZlObgZyEu+mBHC9I4aupVBi3EtJrXuHBmpcYnVfHfr3o0PdIW6ov53794Zzm7luI29b3wk4qUKFe1wMNy7uwKnXBIybaf1YeoLrZQY7V9bhEa6jHKhtpGwAroHnsAm4Ha7hmungVeou7uRGLUASIX8bytWDOZrz5mv5DSjiPzO+oNp4KD6BkNAvOEkMXsnvoyt5mdNvuNM5XEcp8GPCm/SL/ILTzy/ixvj9DEpwwbCpOyEb/4mP2ubMf5OQwKv86ORCRdqHDvQPMx3mnCVqeCHn1Gf38+BmAsEKvwxu03j5M0SEK7v81J1Cu59a04MomrYTaSnBSrOHnCMhHhzhZrZMMe/teDvwZ8O8B2CbZXR27+X5hIUq/1sKDSsJS5uMNwAVGJb04eLpFqiW91g61Wwh69A4vGqe5cxUAzABryfjufbqH6liJWFp/TXanRF4L0ig49l9XLAxw7rHJeB6dhEXjecyp3JmqjaFUl6DZG/m8MIFgDKh/4bXOfXGWqW6y/ONkSiAZQRvnExXVxfa1s5jwMbJXFixGddYX9zav8qA4a8C8MOhJZxZpwRf8Jr/Jj3ccqgsBepyqPGfTE814FY7/964Zi4xXctYvremak5uLrhvNO8hwLnNHF+2SKnr+LkE6NTjXjq8XAspLXAl7MUXqc4uVIW9Cq6k7KQ0T01Xd5VrZRU2hKsKK+FwFkEPRuDk2psBG5Moef9lSsbPQ9d/n1L3YR8Rem8R/5mzSBEyneHqqRQu7V0Le2dxdf1kYChOrjnkTr2bkoT9hDX8FFoOkwCd0wRBzfg+WL8LBUxPzSF95jSWtsJJ+OeGaTeJpgShNu29aT1XqSGB5sWT28R4j790RLj62WLc01AR8ppEQDyzY8sciu9106h7IToWsf7XgWkfQI3w12HOWcLYzOHEBSiTx1mCcpWJo8OccbApkMNbVI3BnFRKZkw0azEa4vRETiU2ngyAoJH0fBD+M2MM5t07fXEL701bwHKTKR3ODy8mpFsOOct38r1JfWPUxkygXdxIq4FhMp0nDcVFU0Z7B6vWOC4412Zy7vkN/AB4zX6RjiMS6HJ5M8cWLuAGqnDm6mKRq2r/3eTY0NgogpxV+W6FfLtghaq1i+eOZ/249DflevSaTr97zWVXrb+bHOdZBC1PoDLdQCfvzeS80Zuw9TqKDN0J8tzF2VeXaIQmA+V5/encJwJbFrqarGxTWucZf8L79BKOv6UKfiFP0zUwg/ZhOto7u9O5h4HiLytopwPjjuodBj9N3xodJX0mE+RpIMd7Al5uFabn7DEkla4lH3LlwGYH2hqq3+jD4TccSmqfhP0MGVfEqSVf8JvFvo7liUwlarEvhsTNkDau/nljfELtDhPNQb2wOK0I416lTRBYlX1w17IifaJpq7JGiZlGVlwxK9YdY/ZMn/rn1Zh4s8eeamRP3l8XrVu4strp3qiB0QYgNO3N55AUr9U2mYNBGjusScOi3dfPTh1uBbv79mm0TaZAjDZeQK0GyXJfxVvdhsSyfUx10NbLtIeco9eKYrt+lhIcU/uMtGWiDTaqCKvF6Z7EqtH2HQtEamv/u1l4R4LhDUVDQ6SOjrjTcfgsLp5eS/UbfTinpqw+kEF1ZKM3Y6EFAytNWMJ+hkxRA9Xa0IR5LTpPhFGV4eyCc3u4vvE8wecMmPZKiF5JxINQXhRB2POvUlenHG7jepVLy3Zy8bQv7VytaxVDwMNDufr+F3wPgIGC9y9gf/8FICSBARsTzHXhaQb0f1q9FpQf1yau4Vreh9QCdXUv0rYiB8O3ObR3hhpbtjvA7e799LbRnu383SHT+uhV6tTyYSg38DBdD/fJWCyX7raYns8n4fzJ/+Miiy1KqVm/iG+SXyVqRXcyFv0Rph+h3zC/hloB0PHbjUO5sOL3lFfk8H3kYoakPk1tTQ5fb3WhV7CBvJNFFKjxhduHxRNQCudU4ar6yMucWbcWMNBu/WQ6jOtP7cdLFIF52yIyqibjWlPYSB20GlTAQts0i6D1i9EZ30mNxhGwbZ7ecjeHtyjnGrpexwMaDaLpY2El9uZsJShzP5Zyslm0V4oGxvIj0954ljR2Lg+Rg0+sOhZbjPeWAXhN40VAPOkjIct7oJWFoX5cQ+McsIaJzO5aBiG96Jx7jHTvgcR6GvNZjo/aucBSq29pVbHct1Qzbl7aSey2aWTpp4GNsdTcPuZzxi2yksbaaVR1virWjpnqhzYB8XY/tJ/bd4zRE6NI2lXQarRXrVu4urSTWL0xarpi999wejXT39WrL0jTzIJLH52Fz0G9qtmIZrt+LhsKVjPdqmMlRfaGc6nqZrh26nDTvgeKEJCVaiWgBcSTHlfMCr2yOXXSWOUrMeVdJfp0VAyg1jsqJI9T7yrZLDYojplG1i19WRq1cQpJY+cye6w/KbuUl/NmfMQ6x/qwR6/nfnVg2h5zUslvfOFR7mm7fhpLTxifZS/CWUu4vkAVdONJOtGIyjoginByWGPxXHrj5lnIldOogg8YDlRg49uNDsP70aFoR6Naq5KFgRxW/7c0n80iaJwfhiWBdk2LpcuCuQTg/DQ9/79ZdKk18O3UuynRmvFOTuRUkg7vJUcgLdg0YXovP2vfR6qXL+3LcjC892fHtG4AuVs47pBZsD7XTi2lavhuwud7cnLFyzbTVJ9czTcH6h/v+PCLmij0Rlxw6jVBdRj3oBNk32kAACAASURBVC2utO81QdEoebvSxpTuaXoumwCb/h85n34KQyZTUlcEuFCeBdf5lOoVvyNzzkZ8B8RgWDeY4+vm0O2FBNPHUT0qvuSbVxcoglzmRHKzU3GfZODUwgWQsJ+6K19Tnm7exLujbqRFWR0Gm4VSJzcDF11d8B71T7wfxHQsJ/HP9q6usoBziUaBycqkmzAZXdFmDs9YYDPn7aWA4rIHNGPRzZM0di7JYTms0Fu+1w2NZ8GxPqTp9SbhaEPASaZfMrsC1BvXAUIG4qOeW/qontFj/Xlu10k+SI9jdqQ/XCrAOKbuebcAxkLnEEhbd4zRMwfis20t6XETCQqApSNnEX5uLeG7CjB+iG4vamw8jOah2DLS9Kttz1Mn3iG8IJ50/VyCfsog1pcuU+wZx/AASGklfnWtW7jCekuQUtJvoayoEAgO0W5lUkoxqNvhTFQ7lrXw05x1sE9SZG86e3pZbsmjfh0/l5VHVng0nDgJMf0Izs3gfmM+i68iIDeDW8HyyxEqb/FmK9P3qINKAQfOlTLb1x8oqKeVhDxOaf7fY9QOXtpJ7Ou3VgeTmSRxIsw5W1+4StivOhHfygS2luqixYQtzsetISd35wl0XTKLDgdSKBo+wnaaWsXZu637BJxV5Z6Tk+2kALi70s5zKBFaPyVrB3lrnDxw7jUBgPau0AY/0+9619KU3cb1KpcwUL0mhe/WJREU+TIlwPWqIossNyo+pDaPelyredFGZXT0fOFVehir5uZCpxci1B8uOBuy1TMv882Ml/FadJ4BSYATUDcSP9U8q0udTLvszRx+9m4MmrI9ekHlzkyuAe2j4/Eu3UlBnnLO/14d7VCd5+N3M2BKBM7O/RmwMYGSPAPt/MfSM8n8nNr5u3Pja/XHpys4fkprDr1KXUU8bpHunH9iKrXd/kHf51wa1iA2Rm4R1VMmM2S9jlO2TNZNMU+bWHCTfb2AiyXY/DhpCksf1Sv+pjaC8TY0nmnHkuIy41F/fDzzOGWx5+cDRKnDDGXH+EA9l3vF/DaknM5htvGDOqYfPmrZSabrRDFazTs8TrlOkHcpWfuM84LVeGYXRSBNbEh4urST2HXxpM/Us12jcUrZtZqUXQ0UbQsLZUBT0LZp66BVC1dLH32AYJP6V12xckvYM2UVMP1gGemR/kAU4SUHiTWpi5u7Dvaxa3I8sYf0uNEs5SSEe5K+Tx2UAuKZHQvp69To8jHTyLqVPdVippEYYqmKb05/rZCuXhRnqV99EwdCuvEr8Cb81hwih6qyyYSN+8I0MXn7u1uOhQn7GTLFD8OSPre8Osuo1fJens+QKfVX3OE2h4Dl8+h2ZTNfbSyk2/CGy+sQPZeeRstpdQ5XKgDP3nToWEZpliah9QTr/Q/6rPKzuZIPAGdo03Mkv31hpPrbBWeS+K0qz7RxhfKjmvRlX5BpbD+jBq32ZQxbhtIrVBHIrpV+aHEJr8TzDHjQ1rVduH7E+qDqAA7ASsLW6zAYBYnIVKImWaYuXRZMxsxT9Ou1j1MLFyj32T+VyOR+XNp6Cw5LO8dwPD+VKI3myrNqF9+8r9FcPfwi3dT/2wYPxSPUA/e4Cbhd/JCCvHKqPlnB5cLdBD+cxJXoYdR8NMbmqkeHMT7byFSi0vLpUPaFbSHrtqAIGMW36Jbz3Lt6csfOJWteN8s9KJt7PGuISzvZUzKX4QEQEo6itWoRjNYAfzbM05PlaWMPzYB40mf2JmvdT7lLiD8+nmWcaiVaK5A4V1ReUTt9zGizL5AJT4ICHC3pJKdyezF6rL/t0ycyKA6LYmlkb4qzLL+oGq5DU1G2VAmPtKxHyukciB3NUrt5PImKiSbKO4cDFi9AGRcvAfizIa6XzdxNoqxYVZhF85D2C1LFx9dO+zVKNFEhlgNzcZHyI2lsnA1TURO5dIosejPcoj+speR0BdWn95kmal1oBcUHVD+TyFSiVMGqOVcJliwM5NSBCjoGzdIc7U7PNfPwynqd/1uyyL7go6Fq/93kPG/8exmnmecZ8MY42u5KoXzEP/COjLGdMcgD19oau9doG94dpy/XcnxqMMenBpN5pILqIy+bfufm2sloxY1tD5D7/odgQ6tWmhZsKk/7l3nklvQ4JmrWPcn5ugSiVvwDj0n7iX6yNyWvPszFL61DPKSQ+/xqitP3UZ6+j6orV7leoPxfnr6B/yxebVtQ0U2gHdDujrH0TJpr+gu4w918/ycXceW9P1NeAdfO/Zkr7y2iusRA+fLN1D64jBB2kLfbuj4rCUvLZ8jylU274dMTOZW4mRJPX8swHqrQFZbQlMKUOkTNmdV4UguUCfii9QQcEE+6Xk+6vbHVBim7VrPiXG+S9dOsxrymjmcFFJf1UkyVal1GhzgmAD6XVUZ4ZDxRZDjgWlLAxRIvzbitjI/GMQzMY+PSRx+wMZ4pQlZarhc+2maKmUbWTB/26OtrtZLGziWrXvs0gvosttsZGuzn64aPaexvHbRqzdVz+44xeuYssmKB3GOkl2klG8Vubtr3zQGH9ufe/YgovVoemB221fJOlehJjM0jTa/JY7cOlubCYL2eRIvy7JNyOofZM0ezdJdGi2ZcjWN00MfSkVvJ8wCkrzWXf0nxx0rU60mklPT0PIzOMpbqdaX+jTqGn9hDetws1TSZR3p6qYUJwKItHHRo7xxrbm/z/o0FTD+YR9Z4xURbmX6M87dsbFD3ARwZDZp+UP3G6xSvX8yQNMX5uWST0SdqFkFzlFhPusX5GFf319M2OYwtp+S1mvMX+GbG76muNeA87E0Chg/Ft2NRw4OZkw5MBq4vuLIwmCsADMV31WI6f/xHSuoJhRG0C/XFua4I2/tmDaXLnX5894ltXynbmH2g6psndbj5u8O3lkfbh71J10nWaaF9kAuaJZMqHnhMelP1rVJW5nlNelNZ3efpSztsxMTy7M11Qw7XR8XTpztczd5HJTraOmeq8a1Uhsyl15jepp/t/N3pEKTRCFLBlZQHzGEbALqNI+qFfnyzF2ozU8h5w/wcO8w/q/QV56G4DplAJ38PPHzBbdxZBjxYQ8HGD2FcEh55Jyj1T6B3Ug45m9Za1qkJKHGvzAJd9YEljWtYreKYhaXl13eEr4dl//VenI/OSkuWNDaO4NyDJpcEE5cuUwwEd23MRGZJyq7VpBRp/KoaGM/sU8D01GOkzzS7e5jGmcY+vE9kUKxX/LUcwXr+qExfS6w6nmrHxsr0Y5wPUccza/eHsmOsMI7BAfGkj6dJi5Asx3Vlf9xGx3WrOiTq9SRazZdLRw6Ec2tbjTM7yN6Cv1qSxs4luevB1rkEucVQnEx9Dt6OwKyzCFo/D95wQOsVmUrUHPiPcaIKXUzXaBeqP93MjYR3iYjzxalkJyfm/NFkQmo7fjcxj0bgXHeVWquJ2cnNBSpOcHbmA5Qbz4VspO+SYXSsA6oKKdi2iIs7PwVUB/XjqtA4ZjcDJ5aToZk0TQ7taf0IWzEBb2cDXz89mKI8qB+HqpALKwZzOROI383AGRFQlklO8hhK1Vnfe3k+ARUfqn5NlrSPjsfv4suaOFcrCUsbSe37X9j2TfKMoFePLxXn+8Bl6ObG4x3ogXNFIUWnPqUwdS3VZe44D/8TfiOG4hvqS7sfirjy8QrOnx1bL7gqzi443bhqWoWpYPZPazf1CP1CTnD2b3+mZvx+ooI2q3WdQ9Bb8wjqUo7hpSgunZ5Dt0XDuJFbxNW8ffxwsYjaHk8T9Scfijeu4OLeD8F5Ah6zkwnplUnW/D9SY7NzWGHdV34uNBg2QHnvws81Tzy924Z2VfhPXZefEmOohlbWDiJc/YqRCO0tgXkV6ZoH/kTPac0X8rD6wCl+GB5lEjSq1aXsQ9Lym+0aQuvj8KYcmyE8fg79qnDvv8hd85r9CO1qSJXmClR8W7AbULM18lMH4/7pEOFKEARBEAShGWn1Du2CIAiCIAjNiQhXQvPTfiEhyctxbdIeKbPRLUujW/dbvHbIa/zm8YW2Fpg1Cc/k49w5xhxssfOTGQx+zMa2HVa4/uk4d/3lMYev4/rwDkLucjT1PHqtTsO3oXb1GodrSILdP+dOVumjl6MbOgoAp05KuAqnMZvo+7C6PKxTP4u2dIp8jW6DdJojOpy6G8sfh1Pz7YsjCILwi6VVrxb8NXC7Ni/unJzNmFGFHBkdR6OeGte2U+KUxqg1Og7s8GP4H0Lrp7lykM9mTjHte+c06RGiIlw5N2JN/X3rKr8if8sajD7C3ZYZ6N9Hc769C7Wf69m9Yg149KDHXT3I/ztUqqcDVxcyuA/2+e4QuyclmtLDbLpF+8HRL9Xfj+D/WyjS77CRWYdT9/44t1f+7znUj6qPynANMa9dryvcQu33ti/t3Ks3vk7YXtXXfhjO3X01wk0RbdsPo+fDCVRo40R9n0NNoRIrqfMfVzGk23HybCyAcw2Pw+3TLRx5z1z3bpMT8fl8DQaP5fx2QyJVK0bxHy8dQTo/zjCKwGV/p9tnj3Bi65e4PZnNqN8aOPXhKu7aMgDva8fZO2kvgS/puaPDVWhfw9eLd/CfJqyhCFxdyGA/6/b/qWm9fiKCIDQPIlzZ5Wa2v7nNDuQx05QtHl7XClaz+c17eiK6AJST+UyoabJTBCQP5cfZTXww968tU6/Q+3E//neOOd2L+9FRbN8CMI+QZ3Xk/+2v1ESnMSbZ1aw2DXiNgZP9uLhrn7KZrgU6Qib6UrpljWnyvbxIx3ZNis7J2QxpsELadniNwXsGYDAKidFpjEnWJH1wL/dPDcW5kws35hnQ/eEgn/2PJyF+vji9YkCR0Qo5+8IAck8DjKP3K3qCrmRTUQ1c/hYGzufOgUpxbj1DqUkzCzRufznOPfdo9qNr74JznYH7TbFjNWV3TyD0TwPUDYFdce/jR93ZbGrj13DPiGxKvlOz5KVx7O/mQJTXvq+gxlbo9GtYbi4cvYqIPq64hhzi/unZfLkig4i/rCJ/J4An3s+uok/+KvZuVYTMtk5QtGMUhi1g2PIag9/rAXjSvuoQB6YkQvJBAht8Di3JawzeM0W9frYDHwHa9GDZR05y/7Z+ZM2LJ7eVrXASBKF5EOHqF0s028d7kr7uHYvBP3C1nh4n9XywYo0iOLx0kMrRceTzGhHRGewenUilOrEMnvRXjRajYSpXhPLBCkerFs/Awcf5YK7WjKbDN6IHRWC5ZLx9ArqnH8IzcxOff3LcpJ3iWhE1Fw5ByCZCxlruJOw0YDmB4eaYZK46V2yFKropXF2oO/02e//nK+B++i/zo3tiP8reTuTIe4dQhNf5OFvYHcu5+HacTY1N4OpCtEa0th08qDv9Np/9z1cAuP/hJUILn+HLT5Tz/vNfwsVYdu5fOfMUOE86SKzPXi52H0blU3FUJGcTcWUftXeNo+zlRPLOmm++Ni+HqoERdIuwcW/V31JkWo31CCFPhHJxsc5Ub9dRazCcdMcrzBPnLhG4ff0VeaWeuGJ+Zt0mG4iq2QRTH6LbteNkRvfHt66IM0BH/AhKfJsyp7e5fPyQQ82dP9ePDxxK2RCvMXjP/ZQ+48eRJkUeaUAIO/EOaeF6Zo89RcovZZWaIAg/G1q3cGUV/My43Fe7/12wMeimA0FEAfCNJ12vlGlePmy527lFcNGYaWSFF6u7o4OjwTOVPQAPcr/F0uXX0PXJJnPuGuVnqC+dCUU3CfLf+ytHTEEX/4rh7BSLSd821l/32slIqyHDhiasByHrDPRRg/Q5dXDB2Qm8txioyP4WUPaK6/zkS0TxLaUDHmNUnykm4cr52nH2TjpEpYdrPTNhx3sS6Rt4nDMnlchFNcd3cDqroT0PPejzvIE71MKdccF3i4EoACcXXKstBYEb1YXU5G4BhlGHjqtnd2DIDQXsCQweBD12EPfJ9c+4BVAv/pC5fHCufom6si3UqHbBa3UvYd5NTofbH9O45y4DB2YYCByqKeQHPade1jFs2Q46r53PV7tHErVlSqOaI995BvqM2cT2FwzUZhWiW1JIn7qr1GZu4lSncXjn7SA/9xBf5QK44/u7eGreWW4SQC5v1nFqK7DVBdf3wvAd787Fd+ZTB1T+Xc+psXE4fd+IpBudxpiXhpkDH1qYZS37XOVe1dyrYsuM2Dn5ftz3rrIrWDXJpK3hOasN1wVBEByldQtXFptQKvv6bTi9munvGndGb7rfRXAYrNDrSSGa7Xq1vEvG/Z8UksbOZfZYf/MXcUhvWKcn/JL53HONfC0vDe/F+ax3LA9G98D9uyIqUCeU6Awyz4ZSf5OZ19D1Kaf0nXonrPgrR0YbBSbFnGZi0iNEFG7ig0n2TIvfkjszUfElCnibYa+NojPHOTQpkUqNKa5y+Sj+3X4eg7fDlwnGyc9ocrJNhy4elB2ZgsFBrRuUc/YFK7Nggh2zoI28V97+isANz3DnP/fy1We20xRtW0X21/XP+M9fY9orzkjbDn4mn6wOHcDJMwFXVZhvr9GIOT+Wxl2RGXw24zGqriVQlplDDYp2qqgQOPsYh/78GjHzE3HdPZtTCQs5+/AO7hzojj1KtsWR+7nyv+HVNZQ6ZRNhCOXIexC4OpGqs59QZLqPO/EcaymCd5tsNmE6XztOSft+3JF8iDswH9v7fiPC1clEdo9W/7dqf0VQUjWvDuIe6EFF/ijG7NErApvDJu9QBu8pVP61lefSZYo949QN1x2ujiAIQisXrqy2mIFS0m+xxPMHNdvdGHdPv4SFNgygUnuh3IOm4Hkpu1bf8leye3I2gwO388GkvxK4utBKuJrNb96bgvtefRNNKFZkF1H52BQeeq9Hw87InebR95VhVKzdQd0sXxsJDHANwJX2IQkoBkDPBlf7OXewnOQBKj7T8/l/v203T3sfowDjiZP2Wj6utLXSLXW+ayH3D1qoXOvacTKvreE//7yfsbNWkffZXuAqteWW5V8rNmufLI7X1RcS3AY8xqhIY8VccK57nVGqsOHUoYZz6qnatwew68Qm7nrPgLsTUAdsUQUXp0Kini0n86lQTjylaZtevXGr3qfu36cj5Hfu5P87kxrAdcA4fAPMzvPdlhnoH2n0+cqm4IIHXuPn42oK3e2Ke6ca03YoP7zzDLvStHdSQa0P6Npns/ephTBmL2Puybglx/RKQyGdH9PzUGBvmwJSfTPibDr7QaAf7B7tR6WqUdWavG2btLUfDkqeMck5FloyZV+5W7gZQRBaLa1auFr66AMEm8x9iuaq+dDs8B4zjcQQs7lPWeHXApz8loouUxgcaPwKVyYeM6opr3BTkzQDtq+lah+i0xizp5DO9VbcAT2XE/PKFNw+W87nn/VmcIP7uPrR80/zTTsAXss8Ti06nEJ8cb2SaVFu/lw/PtT89n7eQJ+abDvl6nBy8iDk8dfRacyC3q+8Tl+waRas/Hy5OslqNGifLefUPXq8egKUWQlSlmZHLU4doOiI5TFz+YqG0ag5AghcnW02lwGcnsLn05cTY1zJd9QAjCJw9dv0Z7vqVH9zXF6k40CyVnOVTa2FBu5OQpeNNKV37ncvvoHuBP4uDj7fQX6pgaJ30sj7k56+Qwup+4MfXy91bB81u7wXxwfvAZMO8tCeQge0UGuoLNSTf8TY99aQf3I+PXSzAUf7uJqn3nFlI+FTorUSBKGJtGrhCqDyimp+ixlNrCdWmitPggKAmxlcA6II9yxjzyXAHzDtCK7sdn6rKrLnsvLICo+GE1r1k+JLxRF1Mpr0CBFdsjUTtypYNecqwZOJ7B6tmNrcMYc/oFMcw970oPrteXy+ZQvwWiMFfUv2UxqfmK5rGPzvQ3hXfMtXbx3E94+vUZ36VyrL6+d07eJC3Tl7/lBT8Aww8H8zBpB3BZpuFjRyiMuLRwGzFaHMAq3Z0RJrh/abonwhJ1aEMmrhDtr/zydcu+8h7ijfwe5n/or1fr2V/5jPkS5Gr6370Y2FskOfKPvqHfqEvEJbF9Dh2jMU8MC3Ac1Vzd7ZGJhNx7ED4PPZGNT7zdWP4p51C2m/V89uKxlX8XfCYtWqQ7wXxwfZaYxJ7qH4L6qHbflcVeSXEzj4NXhP+aAIjPagYqtZsGrc5+o1IkZ5UPG2lTAW0A0f03srCILgOK1auNLuNE7uMdLLPDVnT/JBehzJM/VkgcMO7cHjjbunl5K+brXir3ViD+lxs0jWDySZPNLTS00ampvmRAbnx8exIeCkxX5c+XM3odtTyEOPgXF5eT7ApINqrKcpPLRnipLYlrbJQSzCOqA4HltMXN8f5NDs1+GaL53Hb6LXmAH41hyvJwyYcVUCUF5Tf16ZzZHfqf93fZthz+rI/gf16+o1m85doO6a9QmVu4YRWJHNZ1ccvzezT5QN82T7O3HvApbWIle87lqDrl/9srw96h9z1g1DN+1OJafOFddOa9BNM6evv6FuP1w7FVFQOIA+06ZQd81A9ucGnLz6QaHWkT+Bbk/MR2e6piedO7kQ+qf5pmYlT8exv79uUbrng3u557dpnKm36nE2fd97RPm30yg870nEvYsvXTt50PnJbO7oZOCrxTn4LBxF3fEMqgc9zp3jyzmz7V/YUOI5hHVMsvy3/Rrtn5UrQjmyutDUryv36tndmD+elVN9/tt+9VbOLh05EM6tFWd2QRCaTKsWriwd2uuTsms1KbscL+65d/V2nN8tHdotOPEO4TcVF0uNxTMxniSLWDxaXxINRnPLzaJxlgcHQzNcMwAGar4rpOzABvbuPYjnSwb6R7jA6TWaSXMLeScfYvD2QmKqr1KrnZmdXHDtAFVH16jrCwF0dFu2l/59lCABVbk7+FIb+MrEI4Q81o+yjx+pt2IPwPvZbIYN9aDuuKYuNVdxitT4RF05yA3jNV85zrCIq1Se/IDLjdy6o9Qc32FXM+L5p71EDA3F272GiuwMclOf4cO9/6LOaza+f7ifqJWz8fGCym8OcmrRFJyTX7cMrgo4t3fBKUQTyiLkr9zlVKH6p42jqw6Ktr3EiU1vE7g60ZxuUBr3LByGZ8Ve9gL4xRMY6U7lhW85u2gTVZdzqLvvbcYsjOCr5eM4cToDOj2G7nk9owaFsneRXllB2Fg/CfWlc+FxU/s3FprB3vmG8tmsg9ap3hYx00j0PsaKdyUMgyAITUc2bv6Fo43QPnrdAdx7/qbZyj7ydjaDHzNGVzcHWXxoj03bkiA0ygej/ay0nkp4j8E/kz61/68PcCWzViK0C4JwS4hwJQiCIAiC0IzIxs2CIAiCIAjNiAhXgiAIgiAIzYgIV782nJ+m25xlODs3JdMsui5KxetWd93ttZKgGU/fcqdym3OEniNiTL87PHGKsCnxjeZzTjpC35lJDl/H+Xcf0a3hHZ81zMF3eSoeDbWr81Da9ZqAs70/X6sN/yKX0TV2BABt3ZRzbUdsRPe7Ccp5twiLtmwbsRKv/trADjraBhrLj6dtk565IAiC0FK07tWCvxA6zDlL1PBCziXebYo5ZJfaHVQ6vc9vX+1O5id+RDzcu36akkNkzJ9qWkHXNmEyweEuXIp7s37ogaoMvtu2Vl0xB16LznNHmOa8swvXjyzh1BtrwV2HzxAdJevN4QS8l+cTFop9yr7g1IyJmvADs/CK9IMvjUsoJ+MVAeUrbK3q1NE2MEYJ4UB3/GL9qPm4HOdeE0wpfiz6kOtVti/drkdvPJywvfLPeSjtgnxpYzpQTFvnofg+OIEfvtSkq8qhtihT+T98Lv2e8KXwpI3tX9x7E+T1BccWLjDV3SshAY/Da7nivoxebyZw9Y0xXPTU4R3ki4EReD/7Fp4H/0DuzhO4PnGWOyMMnN+5kr4b+9O59ktOz9iH9/OL8Xe9Cs5XKXhpJxebEFTUe3k+Yb7W7S8IgiDcKiJc2eVm9hacRdD6xeg8ASowLOljmuwUAUnd8y17M4dNk2wzEzKODifXkN12FB2Pj+H4NoA5dHtSR8mrC6iNTCVqjqtZaOi2kt6JfpR8ss9GuAId/g/6UrVtrWnyLV0WzHFNig5zztLw+kRtO6wkLK0/V4xCYmQqUXM0SeN3M2BSb5zcXLjxp/P4PHyIjPc96ebri9ML5+kOQCEXVgzmcibAWAKWLMa7JIcfqoEiA0TPpWe0UpyrrjfXtn3IuS3q75lH6DdME7Le2QWnG+cZ8KDxgKbsoAkEJPVXN1F2oWOoHzeyc7h+75v0i8uhslTNYthCzvpMc5m1FVwrq6A+V/lRuw9R5Ep0oS6077WfLlNy+PqNDHQzV1LyCYAnnZ98laCC1zm9UxEy2zhB+SdjuLINrmxbSdh6HeBJu6ovyJw5Eebsx7vB59BymPq2Rb/WvgsKJZsCTc+iIYwCefUBVWgXBEH4hSHCVTPivXwxPqeXcPiNtYrgsHg/1Yl3U8JKdJEZnEqcSDUrCUubTFjCAocmGoDqN/pw+A0HKxE5ltABX3J44QOagzo8wnWUg2UQT+cJdJ2bgFvWZrIOfGkO/HitiNr8L6DXRvzvddXmoG30MrqEmiNjtg9ygYsO1q0xXF2oy0zh/97PAOK541k/uo6PoGrTRM5t+QJlwp5HOwv1WgUlm+62qbHxXp5PV83vNq6e1GWmkPG+Eniz48MvElD0X3x9QDnvNftF88bJeQswPA/tEvbTu+unlAQNpfr5u/lhzll0JZ9SN2Qs36/+PUXZGi1VhYGSK/3x6mNl/lMp+9qYdjLdZvSm5KVgU72dh79J8Wl33O7woJ1XX1zOZ1BY5okz5mfmlXie4JrNMCkBr9ovMUTG4FFXhAFwwQ/v+/9BlVMKpSe/cKi5SxYGctihlPbxXp6PrmAJpw7MU/bRtMDyA6NxFIHMbUcg58i/9cj2giAIPxGtW7gKiCd95kBTlObK9LXE7iqw2GQ5WK8nERyI0L6SrqE5GBaqX9ohvnSgN10ToGTLAs7NMKZbwJXsyRaTvr3ywtIma7QRORqzoJVW/FLgXAAAC2BJREFUoJ4mTEe3VefprmZu4+pCOydw33ieH742gBqOs8OfXyQYA1XRSdwZNhljTA6n2i85PeMLqt1d63UQl2EJ6PyPYzitaGeundzJN9mZ2MedoOTz+KuSmxMueGw8r2yW7eSCc42lIPBjTSG1eR8CQ7mBjmvndlL9TW/AnsDgjveU/XRIqH/GtZs54Hv98uFazYvcqPiQ2jzlXF3di5qUOlyn/i/9Bl8gc44B79ih5lPVSzi/ujt9nv03HVOe5JtPP61vLrVFr3kMGD6Or2ds4fq5InyeySfoxlXqsjZzvlM8nb/dSUneF+TlKfflET+W2vdeNpmCS9OCOb8T2OmC8/pQPMa4U/LeAm4A1euXcH7UUNp+f6HhOkSmErV4KB2Mvy3MspZ9zlpzZMuMWLIwkBKgw5x5jdx8feqXt5aLM5TreQ9ocnGCIAg/G1q3cGURoV3ZuHnD6dVMf1fPc001C0bq6FhWxA+oZpLIDAzZvXGrl3AlXUMrqGo0WvoCziUaBSbFnGYiYTK6os0cnmHPtGjg8vyJii9Rt3/QZ9lIOvAlZ2dMpFpjiqteNYZjznMIew9ypxoFN6PJyTbtPd2pOj6VKw5q3aCCiyuszIJT7ZgF61FO5aYMvN96mp4bP+Ubm9sHVlD+8Wry8+qf8Zr9Jl5Wx9q4+pl8stq7Qlv3CTj3Us45aTRi7ab8L+ERmWTM+SM1tROoysrhGnD92xzKi4HsP3I2eSUhsxNw/vRTxVzaayU6kynRBoYt5KxXVZBvraXK6Sy6i304twW8lydwNXsf5ab76Eeney2fg1ei2YTpVPsllc4R+M/Zj1Fh5FT7Jaf/bcPfS8vpiZwyBmK3av8Oc8bR8YCqeW0W3NEtVjVQ9XzrBEEQfr20buGKaLbrH1C0KACU3up+ynScc5Yw/x0cnrEA7+X5VsLVLILWT6bjgSWca4LjcT1yi6ieMpkh63UNT1huc9AtGUb1hp3cmO5rI4FBtTm54NRrAspiM48GV/u162A5yQP8cGgJZ9bZ34GtnbdRgPGgrfZa3q60sfL06jD4aQb0fxpQhAVD7VoubhxH9PSVFB7aB9Rw3cql6XqJWfukpa7uzXrHXKOS+K3RaufsgtONV/mtsmCPNq5XTXt0X980mJOnN9J3/Xk6OgF1wMbzykmnfIKfrMDwfB9yn9cU7q7Du2sFFw4qAo57XDzOGTspKQM8I+h1h1lY8lp0njsijD5fOXyX706n++bibHqYLnTseNW0LczV9/6LE9u0d1JOnfef8Gmfw+nnF8GI3UQNy7wl4aX6YiEdpixmiH9vmz6BTTMjKlooo8XYe3k+UctXWpTbHGZJQRCEnyOtWrha+ugDBJvMfYrm6qY5beAHz8mE+RtNdLPoYCHPqKa8os23rhkwah8iU4lKy6eDLa2AbhkhL0zG9dDLnDnUm7DpDRXoh1/SXIyeVNezvuQ6Otr29MW5xHLCNpqBjHROPk9QTY6dcnW0cXKn24xX8dGYBTu/8Co9wKZZsPrIy6opSqNBO/QyeXGLcdMBlFsJUpZmRy1tXKH8uOUxc/mKhtGoOQLwXn7WbC4DyJzKmT8vI8S4ku9LAzAC7+X/JIQdqlP9zVG6LJjMOVrN1VnqLDRw/Qh8doQpvVOfkXj4u+MdPwwO76Sk7ALl731I4fTF6GILufGwLwUrl9x8hQC23M3hLUDCfoak5TfrwouS4zkgpj5BEFoJrVq4Aqi8om7MGjOaWE+sNFeeBAWASZ3RIIovFcfVyShhMjrPHM3ErQpWzblK8PRETiUqpraOmMMf4DaUPi97cu1fT3Jm24fAykYKMnDpeU2YB+83Cdu0H/cKA9+s/wKPqSu5tnUB1TYWwbX3cuHG1/b8oSbTqZuB83MGU1QCTTcLGvmC0uVjgFk2nJy1ZkdLrB3ab4qKReS+0ZvI+f+mXeo+ro9MwL9iJ6deWMB167RZq8lYaQ7f0DZ6JB1Npr59/F+VLSFUh7PuDsAdjwY0V7UH/swVZuF67wA48meuqPd7+eUR9Fv1NO0OLOGU1Q7Qyio+muhUjiJk5aYSNUdHB6zCatxU6IZZBI3rTfXpzRZHJRSEIAi/Vlq1cPXcvmOMnjmLrFgg9xjpZZp145zkg/Q4kmfqyQIHHNqhZOFmuqblM2QKGFdKlQAk7FdjPU1mSNpkJfEt+KBYhHVAcTy2iH9V9QVnn3wDan3oMGYjfiMH8P+3d3+heZV3HMC/sU3fxnd5k661bJgFi3UlmuL+FJytMOhggwq7UCZ1bsOb0YFeWITtQuhwTGQwkIE3xQ2CMDomc7kYagYOhE4Hk46yooxYK6mtklGsrbZJQ9NdJG3eNKkx7unJn34+V+E9h/P8yHnC++Wc5/mlY+SfM8PAJbW0NG9LO/Fw/vPA5M9rn0nPo905/mxm1tq5K22dyfjY5Qcmbd2Wz58ezLE5m3NNmVoTNcvrydbNaetMpretqqV+59NZ1zPzWo3GzM9Wdm3Lup2bk0zsdFxVfzrrdk6df/kC+KQ3rfXhfDC8JV0778/42FCOv3o0K9b0TvW3uljejp/lpq9NDbr6hkaumxaYBnP85z+eVn/97oFs7n0+QzN2Pe5K9+8m50p9e+p33ZO2NevTfn0jbQ+9mS/Wh3LkycF07P5Wxg8cyrktP8lN3zmVoYF9l3qSzdflPclO/P7GOefn9Lk4Mb8nWi588uL4T1XDl/dk6zcfmX84BFhg13S4mr6gfaa+F3+Tvhfnc8HmRehNLr5u+ayaFssnn7I1w9hQkqGMnRzOR3/vy/uv7M/n9rydjT215NDepi/NP2f44D3Z9Idj2TgymvPNr9dW1NK6Ohl5fW8+vPRhd9Y8NpCNm2pJRjNy5IW89dJsBdyfLzzQm49f/mFmy17tj76ZnjsaufCvplpGRrOit2lN1In9kzsYu7Pm8dfS0zOaswefzwezXO+zOHfghbx3hWP1BwfSfcctaW+M5uxb/857/Y/lH6/sy3jnrnTcd3c2PL4rHZ3J2aP78/Yvf5TTdw3kK/dOb9jasjq5blV3Vl36nXan86lnJxu47kh7V/LhS7/K4ef6svbJpu2OW/6Yzbu3pX7q5RxMkvU7sra3kTPHhvLuE/syMjyYC9ufyVd39+bIU9/N4UOHkvqDWffTPbl9yy05+MQvJnYQzjVPbl6ftuHXp+38+6Q1ULMdv/IYV/hbmON61mEBy0FLf3//hblPm7D3t3155y/9V7OeJev2X/819Q23Fbve0N8G07394pf1VL+grX86VmwMri2v3nvjZU+aJtp7bFrkc2rk/Xdy4KFtc58IsEgIVwAABfnHzQAABc17zdXXr0YVAADLxLzD1f4NG69GHQAAy4LXggAABQlXAAAFCVcAAAUJVwAABQlXAAAFVRKuznTdmZO3fi/nax1VDAcAsGAqe3I1Xmvk9M3fFrAAgGWtknB1/buvZfV/3xCwAIBlr7InV80B60zXN6oaFgCgUpUuaG89dTTnax05X2tUOSwAQGUqC1djja6cvPW+tJ46ms43nqtqWACASlUSrgQrAOBaUUm4GrnhNsEKALgmrKxikPbDA1UMAwCw4HRoBwAoSLgCAChIuAIAKEi4AgAoSLgCAChIuAIAKEi4AgAoSLgCAChIuAIAKEi4AgAoSLgCAChIuAIAKEi4AgAoSLgCAChIuAIAKEi4AgAoSLgCAChIuAIAKEi4AgAoSLgCAChIuAIAKEi4AgAoSLgCAChIuAIAKEi4AgAoqOUH3995YaGLAABYLlq6ur4kXC0SY2PnFroEAOD/tLKlpWWha2CSewEAS59wtYi4FwCw9AlXAAAFCVeLiHsBAEufVgwAAAV5crWIuBcAsPR5cgUAUJAnVwAABa1c6AKYIugCwNL3PwEG2MQ0CE2LAAAAAElFTkSuQmCC;" vertex="1" parent="1">
                    <mxGeometry x="400" y="150" width="599" height="182" as="geometry"/>
                </mxCell>
                <mxCell id="5" value="如图，AO中的age属性已经销毁" style="text;html=1;align=center;verticalAlign=middle;resizable=0;points=[];autosize=1;strokeColor=none;fillColor=none;" vertex="1" parent="1">
                    <mxGeometry x="430" y="350" width="180" height="20" as="geometry"/>
                </mxCell>
            </root>
        </mxGraphModel>
    </diagram>
</mxfile>